<?xml version="1.0" encoding="UTF-8"?>
<svg xmlns="http://www.w3.org/2000/svg" version="1.1" viewBox="0 0 65.2 91.4" preserveAspectRatio="none">
  <!-- Generator: Adobe Illustrator 28.7.4, SVG Export Plug-In . SVG Version: 1.2.0 Build 166)  -->
  <g>
    <g id="Layer_1">
      <path d="M0,64.2l15.2-2.8c1.5,10.7,9,16.9,18.4,16.9s16.4-5.2,16.4-14.3-7.2-13-17.4-13h-8.8v-13.3h8.6c9.4,0,15.2-4.1,15.2-12s-5.2-12.6-14-12.6-15.4,6.7-17.2,16.3l-14.2-2.6C4.7,11.9,16.4,0,34.2,0s28.3,10.4,28.3,24.8-5.3,16.5-12.6,19.1c8.5,2.7,15.3,9.4,15.3,21s-12,26.4-31.4,26.4S2.6,82,0,64.2Z"/>
    </g>
  </g>
</svg>