<?xml version="1.0" encoding="UTF-8"?>
<svg xmlns="http://www.w3.org/2000/svg" version="1.1" viewBox="0 0 65.7 91.4" preserveAspectRatio="none">
  <!-- Generator: Adobe Illustrator 28.7.4, SVG Export Plug-In . SVG Version: 1.2.0 Build 166)  -->
  <g>
    <g id="Layer_1">
      <path d="M52.9,25.9c-2.2-7.3-7.7-12.8-16.8-12.8s-21,12.4-21.5,28.7c4.2-5.8,12-10.5,22.1-10.5,16.5,0,28.8,12.8,28.8,29.4s-13.3,30.8-31.6,30.8S.1,71.4.1,46.8,14.2,0,36.7,0s24.8,8.2,28.9,20.4l-12.7,5.6ZM34,44.2c-9.8,0-17.4,7.5-17.4,17.3s7.5,17.2,17.3,17.2,17.3-7.3,17.3-17.2-7.4-17.3-17.2-17.3Z"/>
    </g>
  </g>
</svg>