<?xml version="1.0" encoding="UTF-8"?>
<svg xmlns="http://www.w3.org/2000/svg" version="1.1" viewBox="0 0 66.8 91.4" preserveAspectRatio="none">
  <!-- Generator: Adobe Illustrator 28.7.4, SVG Export Plug-In . SVG Version: 1.2.0 Build 166)  -->
  <g>
    <g id="Layer_1">
      <path d="M62.3,24.5c0,8.6-4.6,15.3-12.7,19,9.6,3.1,17.3,11.1,17.3,22,0,15.8-14.3,25.9-33.5,25.9S0,81.3,0,65.5s7.7-18.9,17.3-22c-8.2-3.7-12.7-10.4-12.7-19C4.5,9.5,17.2,0,33.4,0s28.9,9.5,28.9,24.5ZM15.5,64.4c0,8.8,7.3,14.6,17.9,14.6s18-5.8,18-14.6-7.4-14.3-18-14.3-17.9,5.9-17.9,14.3ZM48.2,24.7c0-7.4-5.9-12.5-14.8-12.5s-14.8,5.1-14.8,12.5,6.1,12.5,14.8,12.5,14.8-4.9,14.8-12.5Z"/>
    </g>
  </g>
</svg>