<?xml version="1.0" encoding="UTF-8"?>
<svg xmlns="http://www.w3.org/2000/svg" version="1.1" viewBox="0 0 66.8 91.4" preserveAspectRatio="none">
  <!-- Generator: Adobe Illustrator 28.7.4, SVG Export Plug-In . SVG Version: 1.2.0 Build 166)  -->
  <g>
    <g id="Layer_1">
      <path d="M13.4,65.5c2.2,7.3,7.7,12.8,16.8,12.8s21-12.4,21.5-28.7c-4.2,5.8-12,10.5-22.1,10.5C13,60.2.8,47.3.8,30.8S14.1,0,32.4,0s33.7,20,33.7,44.6-14.1,46.8-36.6,46.8S4.8,83.2.7,71l12.7-5.6ZM32.3,47.2c9.8,0,17.4-7.5,17.4-17.3s-7.5-17.2-17.3-17.2-17.3,7.3-17.3,17.2,7.4,17.3,17.2,17.3Z"/>
    </g>
  </g>
</svg>