<?xml version="1.0" encoding="UTF-8"?>
<svg id="Layer_1" xmlns="http://www.w3.org/2000/svg" viewBox="0 0 84.45 120" preserveAspectRatio="none">
  <path d="M51.11,35.2l33.32,63.49h-15.8l-7.59-14.5H23.06l-7.47,14.5H.03l33.32-63.49h17.76ZM51.35,18.48h11.02c0,7.87-7.59,13.26-20.21,13.26s-20.21-5.39-20.21-13.26h11.02c0,3.8,3.92,6.37,9.19,6.37s9.19-2.56,9.19-6.37ZM40.82,17.42v-5.31c4.29,0,6.25-.97,6.25-2.65,0-1.77-1.71-2.65-4.78-2.65-3.43,0-5.27,1.15-6.61,3.01l-9.68-2.83C29.06,2.83,34.69,0,43.02,0c9.68,0,15.8,3.45,15.8,8.84,0,4.33-3.8,8.58-18.01,8.58ZM28.2,74.28h27.68l-13.96-26.53-13.72,26.53Z"/>
</svg>