<?xml version="1.0" encoding="UTF-8"?>
<svg id="Layer_1" xmlns="http://www.w3.org/2000/svg" viewBox="0 0 84.45 120" preserveAspectRatio="none">
  <path d="M51.11,34.1l33.32,64.59h-15.8l-7.59-14.75H23.06l-7.47,14.75H.03L33.35,34.1h17.76ZM49.76,5.13c3.18,0,4.53-1.89,5.39-5.13h9.92c-.74,8.46-6,13.94-14.33,13.94-7.72,0-11.39-5.13-16.17-5.13-3.18,0-4.66,1.89-5.39,5.13h-9.92c.61-8.46,5.88-13.94,14.21-13.94,7.72,0,11.51,5.13,16.29,5.13ZM51.35,17.09h11.02c0,8.01-7.59,13.49-20.21,13.49s-20.21-5.49-20.21-13.49h11.02c0,3.87,3.92,6.48,9.19,6.48s9.19-2.61,9.19-6.48ZM28.2,73.86h27.68l-13.96-26.99-13.72,26.99Z"/>
</svg>