<?xml version="1.0" encoding="UTF-8"?>
<svg xmlns="http://www.w3.org/2000/svg" width="568" height="740" version="1.1" viewBox="0 0 568 740" preserveAspectRatio="none">
  <!-- Generator: Adobe Illustrator 28.7.1, SVG Export Plug-In . SVG Version: 1.2.0 Build 142)  -->
  <g>
    <g id="Layer_2">
      <path d="M217,477l-180,148v104h502v-112H213l120-95c101-80,197-167,197-294C530,93,434,0,284,0,148,0,37,97,37,232c0,27,3,46,13,75h119c-8-22-12-45-12-68,0-71,49-130,124-130,76,0,122,53,122,127,0,90-88,161-186,241Z"/>
    </g>
  </g>
</svg>