<?xml version="1.0" encoding="UTF-8"?>
<svg xmlns="http://www.w3.org/2000/svg" width="575" height="740" version="1.1" viewBox="0 0 575 740" preserveAspectRatio="none">
  <!-- Generator: Adobe Illustrator 28.7.1, SVG Export Plug-In . SVG Version: 1.2.0 Build 142)  -->
  <g>
    <g id="Layer_2">
      <path d="M292,740c157,0,254-99,254-214,0-94-55-148-124-170,59-21,102-82,102-155C524,84,439,0,295,0S56,96,37,217l115,21c14-78,64-132,139-132,71,0,113,39,113,102,0,64-47,97-123,97h-70v108h71c83,0,141,32,141,105,0,74-55,116-133,116-76,0-137-50-149-137l-123,23c21,144,133,220,274,220Z"/>
    </g>
  </g>
</svg>