<?xml version="1.0" encoding="UTF-8"?>
<svg xmlns="http://www.w3.org/2000/svg" width="602" height="740" version="1.1" viewBox="0 0 602 740" preserveAspectRatio="none">
  <!-- Generator: Adobe Illustrator 28.7.1, SVG Export Plug-In . SVG Version: 1.2.0 Build 142)  -->
  <g>
    <g id="Layer_2">
      <path d="M301,405c86,0,146,48,146,116,0,71-60,118-146,118s-145-47-145-118c0-68,59-116,145-116ZM301,301c-71,0-120-40-120-101,0-60,49-101,120-101,72,0,120,41,120,101,0,61-48,101-120,101ZM301,0C170,0,67,77,67,198c0,70,37,124,103,154-78,25-140,90-140,178,0,128,116,210,271,210s271-82,271-210c0-88-62-153-140-178,66-30,103-84,103-154C535,77,432,0,301,0Z"/>
    </g>
  </g>
</svg>