<?xml version="1.0" encoding="UTF-8"?>
<svg xmlns="http://www.w3.org/2000/svg" width="595" height="740" version="1.1" viewBox="0 0 595 740" preserveAspectRatio="none">
  <!-- Generator: Adobe Illustrator 28.7.1, SVG Export Plug-In . SVG Version: 1.2.0 Build 142)  -->
  <g>
    <g id="Layer_2">
      <path d="M98,508L0,589c56,92,178,151,301,151,148,0,272-87,272-228,0-156-139-183-255-209-97-22-152-35-152-98,0-57,53-96,130-96,84,0,137,43,177,105l94-81C519,58,423,0,300,0,155,0,41,85,41,218c0,140,116,172,224,198,107,26,182,36,182,109,0,69-61,106-142,106-82,0-157-45-207-123Z"/>
    </g>
  </g>
</svg>