<?xml version="1.0" encoding="UTF-8"?>
<svg xmlns="http://www.w3.org/2000/svg" width="709" height="740" version="1.1" viewBox="0 0 709 740"preserveAspectRatio="none">
  <!-- Generator: Adobe Illustrator 28.7.1, SVG Export Plug-In . SVG Version: 1.2.0 Build 142)  -->
  <g>
    <g id="Layer_2">
      <path d="M240,509.3449782l112-238.7554585,114,238.7554585h-226ZM427,157.5786026h-145L10,729h127l61-130.5196507h310l62,130.5196507h129L427,157.5786026ZM283,0c-68,0-111,48.5469432-116,123.3569869h81c6-28.650655,18-45.3635371,44-45.3635371,39,0,69,45.3635371,132,45.3635371,68,0,111-48.5469432,117-123.3569869h-81c-7,28.650655-18,45.3635371-44,45.3635371-39,0-70-45.3635371-133-45.3635371Z"/>
    </g>
  </g>
</svg>