<?xml version="1.0" encoding="UTF-8"?>
<svg xmlns="http://www.w3.org/2000/svg" width="693" height="740" version="1.1" viewBox="0 0 693 740" preserveAspectRatio="none">
  <!-- Generator: Adobe Illustrator 28.7.1, SVG Export Plug-In . SVG Version: 1.2.0 Build 142)  -->
  <g>
    <g id="Layer_2">
      <path d="M346,740c172,0,290-77.5161987,290-235.7451404V158.2289417h-128v342.8293737c0,104.6868251-65,148.6393089-162,148.6393089-96,0-161-43.9524838-161-148.6393089V158.2289417H57v346.0259179c0,158.2289417,118,235.7451404,289,235.7451404ZM275,0c-68,0-111,48.7473002-116,123.8660907h81c6-28.7688985,18-45.5507559,44-45.5507559,39,0,69,45.5507559,132,45.5507559,68,0,111-48.7473002,117-123.8660907h-81c-7,28.7688985-18,45.5507559-44,45.5507559-39,0-70-45.5507559-133-45.5507559Z"/>
    </g>
  </g>
</svg>