<?xml version="1.0" encoding="UTF-8"?>
<svg xmlns="http://www.w3.org/2000/svg" width="709" height="740" version="1.1" viewBox="0 0 709 740" preserveAspectRatio="none">
  <!-- Generator: Adobe Illustrator 28.7.1, SVG Export Plug-In . SVG Version: 1.2.0 Build 142)  -->
  <g>
    <g id="Layer_2">
      <path d="M240,516.3107822l112-231.1839323,114,231.1839323h-226ZM427,175.6997886h-145L10,729h127l61-126.3805497h310l62,126.3805497h129L427,175.6997886ZM485,77.0613108C485,30.0539112,435,0,356,0c-68,0-114,24.6596195-139,60.8784355l79,24.6596195c11-16.1828753,26-26.2008457,54-26.2008457,25,0,39,7.7061311,39,23.1183932,0,14.641649-16,23.1183932-51,23.1183932v46.2367865c116,0,147-36.9894292,147-74.7494715Z"/>
    </g>
  </g>
</svg>