<?xml version="1.0" encoding="UTF-8"?>
<svg xmlns="http://www.w3.org/2000/svg" width="709" height="740" version="1.1" viewBox="0 0 709 740" preserveAspectRatio="none">
  <!-- Generator: Adobe Illustrator 28.7.1, SVG Export Plug-In . SVG Version: 1.2.0 Build 142)  -->
  <g>
    <g id="Layer_2">
      <path d="M240,534.4119923l112-211.5087041,114,211.5087041h-226ZM427,222.7891683h-145L10,729h127l61-115.6247582h310l62,115.6247582h129L427,222.7891683ZM540,193.1779497l-116-103.639265h-140l-116,103.639265h95l91-50.05706,91,50.05706h95ZM690,70.5029014c0-43.0067698-50-70.5029014-129-70.5029014-68,0-114,22.5609284-139,55.6972921l79,22.5609284c11-14.8056093,26-23.9709865,54-23.9709865,25,0,39,7.0502901,39,21.1508704,0,13.3955513-16,21.1508704-51,21.1508704v42.3017408c116,0,147-33.8413926,147-68.3878143Z"/>
    </g>
  </g>
</svg>