<?xml version="1.0" encoding="UTF-8"?>
<svg xmlns="http://www.w3.org/2000/svg" width="594" height="740" version="1.1" viewBox="0 0 594 740" preserveAspectRatio="none">
  <!-- Generator: Adobe Illustrator 28.7.1, SVG Export Plug-In . SVG Version: 1.2.0 Build 142)  -->
  <g>
    <g id="Layer_2">
      <path d="M554,250.1143641H68v478.8856359h486v-74.7008234H194v-134.7282708h303v-74.7008234H194v-120.0548948h360v-74.7008234ZM497,222.1015554l-116-98.0448307h-140l-116,98.0448307h95l91-47.3549863,91,47.3549863h95ZM240,0c-68,0-111,40.6852699-116,103.3806038h81c6-24.010979,18-38.0173833,44-38.0173833,39,0,69,38.0173833,132,38.0173833,68,0,111-40.6852699,117-103.3806038h-81c-7,24.010979-18,38.0173833-44,38.0173833C334,38.0173833,303,0,240,0Z"/>
    </g>
  </g>
</svg>