<?xml version="1.0" encoding="UTF-8"?>
<svg xmlns="http://www.w3.org/2000/svg" width="756" height="740" version="1.1" viewBox="0 0 756 740" preserveAspectRatio="none">
  <!-- Generator: Adobe Illustrator 28.7.1, SVG Export Plug-In . SVG Version: 1.2.0 Build 142)  -->
  <g>
    <g id="Layer_2">
      <path d="M571,475.0392927c0,111.7131631-85,184.040275-206,184.040275s-206-72.327112-206-184.040275,85-184.040275,206-184.040275,206,72.327112,206,184.040275ZM31,475.0392927c0,156.1119843,140,264.9607073,334,264.9607073s334-108.848723,334-264.9607073-140-264.9607073-334-264.9607073S31,318.9273084,31,475.0392927ZM551,187.8791749l-116-105.2681729h-140l-116,105.2681729h95l91-50.8438114,91,50.8438114h95ZM591,11l-89,105.2681729h95L756,11h-165Z"/>
    </g>
  </g>
</svg>