<?xml version="1.0" encoding="UTF-8"?>
<svg xmlns="http://www.w3.org/2000/svg" width="730" height="740" version="1.1" viewBox="0 0 730 740" preserveAspectRatio="none">
  <!-- Generator: Adobe Illustrator 28.7.1, SVG Export Plug-In . SVG Version: 1.2.0 Build 142)  -->
  <g>
    <g id="Layer_2">
      <path d="M570.9724567,446.1764706c0,123.8823529-84.9885771,204.0882353-205.9723163,204.0882353s-205.9723163-80.2058824-205.9723163-204.0882353,84.9885771-204.0882353,205.9723163-204.0882353,205.9723163,80.2058824,205.9723163,204.0882353ZM534.9772947,173.7941176c-47.9935494,0-90.9877708-21.4411765-169.9771542-21.4411765-193.9739289,0-333.9551148,120.7058824-333.9551148,293.8235294s139.9811858,293.8235294,333.9551148,293.8235294,333.9551148-120.7058824,333.9551148-293.8235294c0-86.5588235-34.9952965-159.6176471-93.9873676-212.0294118,76.9896522-13.5,107.9854862-57.9705882,91.9876364-142.1470588h-103.9860238c17.997581,44.4705882,4.9993281,81.7941176-57.9922056,81.7941176ZM326.0053815,127.7352941h94.9872332L332.0045752,11h-164.9778262l158.9786325,116.7352941Z"/>
    </g>
  </g>
</svg>