<?xml version="1.0" encoding="UTF-8"?>
<svg xmlns="http://www.w3.org/2000/svg" width="730" height="740" version="1.1" viewBox="0 0 730 740" preserveAspectRatio="none">
  <!-- Generator: Adobe Illustrator 28.7.1, SVG Export Plug-In . SVG Version: 1.2.0 Build 142)  -->
  <g>
    <g id="Layer_2">
      <path d="M571,453.8975967c0,120.6269592-85,198.7251829-206,198.7251829s-206-78.0982236-206-198.7251829,85-198.7251829,206-198.7251829,206,78.0982236,206,198.7251829ZM535,188.6729363c-48,0-91-20.8777429-170-20.8777429-194,0-334,117.5339603-334,286.1024033s140,286.1024033,334,286.1024033,334-117.5339603,334-286.1024033c0-84.2842215-35-155.4231975-94-206.4576803,77-13.1452456,108-56.4472309,92-138.4117032h-104c18,43.3019854,5,79.6447231-58,79.6447231ZM496,77.3249739C496,30.1567398,446,0,367,0c-68,0-114,24.7439916-139,61.0867294l79,24.7439916c11-16.2382445,26-26.2904911,54-26.2904911,25,0,39,7.7324974,39,23.1974922,0,14.691745-16,23.1974922-51,23.1974922v46.3949843c116,0,147-37.1159875,147-75.0052247Z"/>
    </g>
  </g>
</svg>