<?xml version="1.0" encoding="UTF-8"?>
<svg xmlns="http://www.w3.org/2000/svg" width="730" height="740" version="1.1" viewBox="0 0 730 740" preserveAspectRatio="none">
  <!-- Generator: Adobe Illustrator 28.7.1, SVG Export Plug-In . SVG Version: 1.2.0 Build 142)  -->
  <g>
    <g id="Layer_2">
      <path d="M571,444.8378682c0,124.4467367-85,205.0180213-206,205.0180213s-206-80.5712846-206-205.0180213,85-205.0180213,206-205.0180213,206,80.5712846,206,205.0180213ZM535,171.2145946c-48,0-91-21.5388583-170-21.5388583-194,0-334,121.2557947-334,295.1621318s140,295.1621318,334,295.1621318,334-121.2557947,334-295.1621318c0-86.9531686-35-160.3448338-94-212.9953762,77-13.5615034,108-58.2346909,92-142.794653h-104c18,44.6731875,5,82.1667556-58,82.1667556ZM294,.4991994c-68,0-111,48.661865-116,123.6490012h81c6-28.7184777,18-45.470923,44-45.470923,39,0,69,45.470923,132,45.470923,68,0,111-48.661865,117-123.6490012h-81c-7,28.7184777-18,45.470923-44,45.470923C388,45.9701225,357,.4991994,294,.4991994Z"/>
    </g>
  </g>
</svg>