<?xml version="1.0" encoding="UTF-8"?>
<svg xmlns="http://www.w3.org/2000/svg" width="574" height="740" version="1.1" viewBox="0 0 574 740">
  <!-- Generator: Adobe Illustrator 28.7.1, SVG Export Plug-In . SVG Version: 1.2.0 Build 142)  -->
  <g>
    <g id="Layer_2">
      <path d="M65,391l116,16c21-29,60-53,112-53,80,0,131,63,131,142s-60,138-138,138c-77,0-131-51-143-132l-123,22c23,139,125,216,266,216,148,0,258-107,258-248,0-137-91-242-234-242-57,0-102,22-131,49l16-176h306V11H97l-32,380Z"/>
    </g>
  </g>
</svg>