<?xml version="1.0" encoding="UTF-8"?>
<svg xmlns="http://www.w3.org/2000/svg" width="601" height="740" version="1.1" viewBox="0 0 601 740">
  <!-- Generator: Adobe Illustrator 28.7.1, SVG Export Plug-In . SVG Version: 1.2.0 Build 142)  -->
  <g>
    <g id="Layer_2">
      <path d="M447,498c0,80-61,139-140,139s-140-59-140-139c0-79,62-140,141-140s139,61,139,140ZM461,210l103-45C531,66,456,0,330,0,148,0,34,158,34,379c0,199,89,361,273,361,148,0,256-107,256-249,0-134-99-238-233-238-82,0-145,38-179,85,4-132,72-232,174-232,74,0,118,45,136,104Z"/>
    </g>
  </g>
</svg>