<?xml version="1.0" encoding="UTF-8"?>
<svg xmlns="http://www.w3.org/2000/svg" width="595" height="740" version="1.1" viewBox="0 0 595 740">
  <!-- Generator: Adobe Illustrator 28.7.1, SVG Export Plug-In . SVG Version: 1.2.0 Build 142)  -->
  <g>
    <g id="Layer_2">
      <path d="M148,242c0-80,61-139,140-139s140,59,140,139c0,79-62,140-141,140s-139-61-139-140ZM134,530l-103,45c33,99,108,165,234,165,182,0,296-158,296-379C561,162,472,0,288,0,140,0,32,107,32,249c0,134,99,238,233,238,82,0,145-38,179-85-4,132-72,232-174,232-74,0-118-45-136-104Z"/>
    </g>
  </g>
</svg>