<?xml version="1.0" encoding="UTF-8"?>
<svg xmlns="http://www.w3.org/2000/svg" width="730" height="740" version="1.1" viewBox="0 0 730 740">
  <!-- Generator: Adobe Illustrator 28.7.1, SVG Export Plug-In . SVG Version: 1.2.0 Build 142)  -->
  <g>
    <g id="Layer_2">
      <path d="M571,322.1176471c0,135.8117647-85,223.7411765-206,223.7411765s-206-87.9294118-206-223.7411765,85-223.7411765,206-223.7411765,206,87.9294118,206,223.7411765ZM31,322.1176471c0,189.7882353,140,322.1176471,334,322.1176471,33,0,64-3.4823529,93-11.3176471,30,47.8823529,97,90.5411765,163,107.0823529l74-79.2235294c-57-12.1882353-106-37.4352941-135-70.5176471,86-56.5882353,139-151.4823529,139-268.1411765C699,132.3294118,559,0,365,0S31,132.3294118,31,322.1176471Z"/>
    </g>
  </g>
</svg>