<?xml version="1.0" encoding="UTF-8"?>
<svg xmlns="http://www.w3.org/2000/svg" width="730" height="740" version="1.1" viewBox="0 0 730 740">
  <!-- Generator: Adobe Illustrator 28.7.1, SVG Export Plug-In . SVG Version: 1.2.0 Build 142)  -->
  <g>
    <g id="Layer_2">
      <path d="M571,444.6386192c0,124.5307443-85,205.1564186-206,205.1564186s-206-80.6256742-206-205.1564186,85-205.1564186,206-205.1564186,206,80.6256742,206,205.1564186ZM31,444.6386192c0,174.0237325,140,295.3613808,334,295.3613808s334-121.3376483,334-295.3613808-140-295.3613808-334-295.3613808S31,270.6148867,31,444.6386192ZM294,0c-68,0-111,48.6947141-116,123.7324703h81c6-28.7378641,18-45.5016181,44-45.5016181,39,0,69,45.5016181,132,45.5016181,68,0,111-48.6947141,117-123.7324703h-81c-7,28.7378641-18,45.5016181-44,45.5016181-39,0-70-45.5016181-133-45.5016181Z"/>
    </g>
  </g>
</svg>