<?xml version="1.0" encoding="UTF-8"?>
<svg xmlns="http://www.w3.org/2000/svg" width="730" height="740" version="1.1" viewBox="0 0 730 740">
  <!-- Generator: Adobe Illustrator 28.7.1, SVG Export Plug-In . SVG Version: 1.2.0 Build 142)  -->
  <g>
    <g id="Layer_2">
      <path d="M571,404.4607843c0,141.4705882-85,233.0637255-206,233.0637255s-206-91.5931373-206-233.0637255,85-233.0637255,206-233.0637255,206,91.5931373,206,233.0637255ZM535,93.4068627c-48,0-91-24.4852941-170-24.4852941C171,68.9215686,31,206.7647059,31,404.4607843s140,335.5392157,334,335.5392157,334-137.8431373,334-335.5392157c0-98.8480392-35-182.2794118-94-242.1323529,77-15.4166667,108-66.2009804,92-162.3284314h-104c18,50.7843137,5,93.4068627-58,93.4068627Z"/>
    </g>
  </g>
</svg>