<?xml version="1.0" encoding="UTF-8"?>
<svg xmlns="http://www.w3.org/2000/svg" width="709" height="740" version="1.1" viewBox="0 0 709 740">
  <!-- Generator: Adobe Illustrator 28.7.1, SVG Export Plug-In . SVG Version: 1.2.0 Build 142)  -->
  <g>
    <g id="Layer_2">
      <path d="M241.702027,544.915828l110.3351351-200.0914913,112.3054054,200.0914913h-222.6405405ZM425.9222973,250.1143641h-142.8445946L15.1209459,729h125.1121622l60.0932432-109.3833486h305.3918919l61.0783784,109.3833486h127.0824324L425.9222973,250.1143641ZM537.2425676,222.1015554l-114.2756757-98.0448307h-137.9189189l-114.2756757,98.0448307h93.5878378l89.6472973-47.3549863,89.6472973,47.3549863h93.5878378ZM284.0628378,0c-66.9891892,0-109.35,40.6852699-114.2756757,103.3806038h79.7959459c5.9108108-24.010979,17.7324324-38.0173833,43.3459459-38.0173833,38.4202703,0,67.9743243,38.0173833,130.0378378,38.0173833,66.9891892,0,109.35-40.6852699,115.2608108-103.3806038h-79.7959459c-6.8959459,24.010979-17.7324324,38.0173833-43.3459459,38.0173833-38.4202703,0-68.9594595-38.0173833-131.022973-38.0173833Z"/>
    </g>
  </g>
</svg>