<?xml version="1.0" encoding="UTF-8"?>
<svg xmlns="http://www.w3.org/2000/svg" width="709" height="740" version="1.1" viewBox="0 0 709 740">
  <!-- Generator: Adobe Illustrator 28.7.1, SVG Export Plug-In . SVG Version: 1.2.0 Build 142)  -->
  <g>
    <g id="Layer_2">
      <path d="M240,548.7096774l112-195.9677419,114,195.9677419h-226ZM427,259.983871h-145L10,729h127l61-107.1290323h310l62,107.1290323h129l-272-469.016129ZM354,183.5564516c-43,0-75-18.9435484-75-47.0322581h-90c0,58.1370968,62,97.983871,165,97.983871s165-39.8467742,165-97.983871h-90c0,28.0887097-32,47.0322581-75,47.0322581ZM490,65.3225806C490,25.4758065,440,0,361,0c-68,0-114,20.9032258-139,51.6048387l79,20.9032258c11-13.7177419,26-22.2096774,54-22.2096774,25,0,39,6.5322581,39,19.5967742,0,12.4112903-16,19.5967742-51,19.5967742v39.1935484c116,0,147-31.3548387,147-63.3629032Z"/>
    </g>
  </g>
</svg>