<?xml version="1.0" encoding="UTF-8"?>
<svg xmlns="http://www.w3.org/2000/svg" width="709" height="740" version="1.1" viewBox="0 0 709 740">
  <!-- Generator: Adobe Illustrator 28.7.1, SVG Export Plug-In . SVG Version: 1.2.0 Build 142)  -->
  <g>
    <g id="Layer_2">
      <path d="M240,545.5870556l112-199.3618961,114,199.3618961h-226ZM427,251.8605287h-145L10,729h127l61-108.9845032h310l62,108.9845032h129L427,251.8605287ZM354,174.1093892c-43,0-75-19.27165-75-47.8468551h-90c0,59.1440292,62,99.680948,165,99.680948s165-40.5369189,165-99.680948h-90c0,28.5752051-32,47.8468551-75,47.8468551ZM283,0c-68,0-111,40.5369189-116,103.0036463h81c6-23.9234275,18-37.8787603,44-37.8787603,39,0,69,37.8787603,132,37.8787603,68,0,111-40.5369189,117-103.0036463h-81c-7,23.9234275-18,37.8787603-44,37.8787603-39,0-70-37.8787603-133-37.8787603Z"/>
    </g>
  </g>
</svg>