<?xml version="1.0" encoding="UTF-8"?>
<svg xmlns="http://www.w3.org/2000/svg" width="687" height="740" version="1.1" viewBox="0 0 687 740">
  <!-- Generator: Adobe Illustrator 28.7.1, SVG Export Plug-In . SVG Version: 1.2.0 Build 142)  -->
  <g>
    <g id="Layer_2">
      <path d="M554,222.7891683H68v506.2108317h486v-78.9632495H194v-142.4158607h303v-78.9632495H194v-126.9052224h360v-78.9632495ZM497,193.1779497l-116-103.639265h-140l-116,103.639265h95l91-50.05706,91,50.05706h95ZM647,70.5029014c0-43.0067698-50-70.5029014-129-70.5029014-68,0-114,22.5609284-139,55.6972921l79,22.5609284c11-14.8056093,26-23.9709865,54-23.9709865,25,0,39,7.0502901,39,21.1508704,0,13.3955513-16,21.1508704-51,21.1508704v42.3017408c116,0,147-33.8413926,147-68.3878143Z"/>
    </g>
  </g>
</svg>