<?xml version="1.0" encoding="UTF-8"?>
<svg xmlns="http://www.w3.org/2000/svg" width="730" height="740" version="1.1" viewBox="0 0 730 740">
  <!-- Generator: Adobe Illustrator 28.7.1, SVG Export Plug-In . SVG Version: 1.2.0 Build 142)  -->
  <g>
    <g id="Layer_2">
      <path d="M571,477.9904306c0,110.4688995-85,181.9904306-206,181.9904306s-206-71.5215311-206-181.9904306,85-181.9904306,206-181.9904306,206,71.5215311,206,181.9904306ZM31,477.9904306c0,154.3732057,140,262.0095694,334,262.0095694s334-107.6363636,334-262.0095694-140-262.0095694-334-262.0095694S31,323.6172249,31,477.9904306ZM551,194.0287081l-116-104.0956938h-140l-116,104.0956938h95l91-50.277512,91,50.277512h95ZM701,70.8133971c0-43.1961722-50-70.8133971-129-70.8133971-68,0-114,22.6602871-139,55.9425837l79,22.6602871c11-14.8708134,26-24.076555,54-24.076555,25,0,39,7.0813397,39,21.2440191,0,13.4545455-16,21.2440191-51,21.2440191v42.4880383c116,0,147-33.9904306,147-68.6889952Z"/>
    </g>
  </g>
</svg>