<?xml version="1.0" encoding="UTF-8"?>
<svg xmlns="http://www.w3.org/2000/svg" width="730" height="740" version="1.1" viewBox="0 0 730 740">
  <!-- Generator: Adobe Illustrator 28.7.1, SVG Export Plug-In . SVG Version: 1.2.0 Build 142)  -->
  <g>
    <g id="Layer_2">
      <path d="M571,491.9927536c0,104.5652174-85,172.2644928-206,172.2644928s-206-67.6992754-206-172.2644928,85-172.2644928,206-172.2644928,206,67.6992754,206,172.2644928ZM31,491.9927536c0,146.1231884,140,248.0072464,334,248.0072464s334-101.884058,334-248.0072464-140-248.0072464-334-248.0072464S31,345.8695652,31,491.9927536ZM551,223.2065217l-116-98.5326087h-140l-116,98.5326087h95l91-47.5905797,91,47.5905797h95ZM294,0c-68,0-111,40.8876812-116,103.8949275h81c6-24.1304348,18-38.2065217,44-38.2065217,39,0,69,38.2065217,132,38.2065217,68,0,111-40.8876812,117-103.8949275h-81c-7,24.1304348-18,38.2065217-44,38.2065217-39,0-70-38.2065217-133-38.2065217Z"/>
    </g>
  </g>
</svg>