<?xml version="1.0" encoding="UTF-8"?>
<svg xmlns="http://www.w3.org/2000/svg" width="730" height="740" version="1.1" viewBox="0 0 730 740">
  <!-- Generator: Adobe Illustrator 28.7.1, SVG Export Plug-In . SVG Version: 1.2.0 Build 142)  -->
  <g>
    <g id="Layer_2">
      <path d="M304,647.3034228v81.6965772h124v-81.6965772h-124ZM571,374.9814986c0,103.6151711-85,170.6993525-206,170.6993525s-206-67.0841813-206-170.6993525,85-170.6993525,206-170.6993525,206,67.0841813,206,170.6993525ZM31,374.9814986c0,144.7955597,140,245.7539315,334,245.7539315s334-100.9583719,334-245.7539315-140-245.7539315-334-245.7539315S31,230.1859389,31,374.9814986ZM551,108.6373728L435,11h-140l-116,97.6373728h95l91-47.1581869,91,47.1581869h95Z"/>
    </g>
  </g>
</svg>