<?xml version="1.0" encoding="UTF-8"?>
<svg xmlns="http://www.w3.org/2000/svg" width="730" height="740" version="1.1" viewBox="0 0 730 740">
  <!-- Generator: Adobe Illustrator 28.7.1, SVG Export Plug-In . SVG Version: 1.2.0 Build 142)  -->
  <g>
    <g id="Layer_2">
      <path d="M571,446.1764706c0,123.8823529-85,204.0882353-206,204.0882353s-206-80.2058824-206-204.0882353,85-204.0882353,206-204.0882353,206,80.2058824,206,204.0882353ZM535,173.7941176c-48,0-91-21.4411765-170-21.4411765-194,0-334,120.7058824-334,293.8235294s140,293.8235294,334,293.8235294,334-120.7058824,334-293.8235294c0-86.5588235-35-159.6176471-94-212.0294118,77-13.5,108-57.9705882,92-142.1470588h-104c18,44.4705882,5,81.7941176-58,81.7941176ZM398,11l-89,116.7352941h95L563,11h-165Z"/>
    </g>
  </g>
</svg>