<?xml version="1.0" encoding="UTF-8"?>
<svg xmlns="http://www.w3.org/2000/svg" width="730" height="740" version="1.1" viewBox="0 0 730 740">
  <!-- Generator: Adobe Illustrator 28.7.1, SVG Export Plug-In . SVG Version: 1.2.0 Build 142)  -->
  <g>
    <g id="Layer_2">
      <path d="M304,647.0275792v92.9724208h124v-92.9724208h-124ZM571,337.1195097c0,117.9162411-85,194.2594484-206,194.2594484s-206-76.3432074-206-194.2594484,85-194.2594484,206-194.2594484,206,76.3432074,206,194.2594484ZM535,77.854954c-48,0-91-20.4085802-170-20.4085802C171,57.4463739,31,172.3391216,31,337.1195097s140,279.6731359,334,279.6731359,334-114.8927477,334-279.6731359c0-82.3901941-35-151.9305414-94-201.8181818,77-12.8498468,108-55.1787538,92-135.3013279h-104c18,42.328907,5,77.854954-58,77.854954Z"/>
    </g>
  </g>
</svg>