<?xml version="1.0" encoding="UTF-8"?>
<svg xmlns="http://www.w3.org/2000/svg" width="693" height="740" version="1.1" viewBox="0 0 693 740">
  <!-- Generator: Adobe Illustrator 28.7.1, SVG Export Plug-In . SVG Version: 1.2.0 Build 142)  -->
  <g>
    <g id="Layer_2">
      <path d="M346,740c172,0,290-75.083682,290-228.3472803V176.4853556h-128v332.0711297c0,101.4016736-65,143.9748954-162,143.9748954-96,0-161-42.5732218-161-143.9748954V176.4853556H57v335.167364c0,153.2635983,118,228.3472803,289,228.3472803ZM477,77.4058577C477,30.1882845,427,0,348,0c-68,0-114,24.7698745-139,61.1506276l79,24.7698745c11-16.2552301,26-26.3179916,54-26.3179916,25,0,39,7.7405858,39,23.2217573,0,14.707113-16,23.2217573-51,23.2217573v46.4435146c116,0,147-37.1548117,147-75.083682Z"/>
    </g>
  </g>
</svg>