<?xml version="1.0" encoding="UTF-8"?>
<svg xmlns="http://www.w3.org/2000/svg" width="584" height="740" version="1.1" viewBox="0 0 584 740" preserveAspectRatio="none">
  <!-- Generator: Adobe Illustrator 28.7.1, SVG Export Plug-In . SVG Version: 1.2.0 Build 142)  -->
  <g>
    <g id="Layer_1">
      <g id="Layer_1-2" data-name="Layer_1">
        <path d="M227,448l-192,159v122h522v-143h-283l114-92c91-72,166-151,166-262C554,95,453,0,295,0,151,0,30,96,30,239c0,26,3,48,13,76h158c-7-20-11-42-11-65,0-59,38-108,100-108,63,0,98,44,98,101,0,72-67,129-161,205Z"/>
      </g>
    </g>
  </g>
</svg>