<?xml version="1.0" encoding="UTF-8"?>
<svg xmlns="http://www.w3.org/2000/svg" width="586" height="740" version="1.1" viewBox="0 0 586 740" preserveAspectRatio="none">
  <!-- Generator: Adobe Illustrator 28.7.1, SVG Export Plug-In . SVG Version: 1.2.0 Build 142)  -->
  <g>
    <g id="Layer_1">
      <path d="M298,740c163,0,266-97,266-215,0-89-49-141-113-166,54-21,97-79,97-152C548,88,456,0,303,0,146,0,48,101,31,226l153,18c10-61,50-106,112-106,57,0,91,31,91,80,0,54-41,78-104,78h-65v133h67c68,0,116,23,116,82,0,60-46,91-105,91-63,0-112-40-120-111l-163,26c20,146,135,223,285,223Z"/>
    </g>
  </g>
</svg>