<?xml version="1.0" encoding="UTF-8"?>
<svg xmlns="http://www.w3.org/2000/svg" width="603" height="740" version="1.1" viewBox="0 0 603 740" preserveAspectRatio="none">
  <!-- Generator: Adobe Illustrator 28.7.1, SVG Export Plug-In . SVG Version: 1.2.0 Build 142)  -->
  <g>
    <g id="Layer_1">
      <path d="M176,246c0-66,50-114,116-114,65,0,115,48,115,114,0,65-51,115-116,115s-115-50-115-115ZM154,519l-132,58c36,97,111,163,245,163,189,0,307-161,307-382C574,159,477,0,291,0,134,0,25,107,25,252c0,133,98,235,238,235,70,0,124-30,155-68,0,102-57,187-147,187-63,0-101-37-117-87Z"/>
    </g>
  </g>
</svg>