<?xml version="1.0" encoding="UTF-8"?>
<svg xmlns="http://www.w3.org/2000/svg" width="613" height="740" version="1.1" viewBox="0 0 613 740" preserveAspectRatio="none">
  <!-- Generator: Adobe Illustrator 28.7.1, SVG Export Plug-In . SVG Version: 1.2.0 Build 142)  -->
  <g>
    <g id="Layer_1">
      <path d="M103,491L0,607c59,82,189,133,308,133,159,0,290-87,290-237,0-158-140-187-253-211-92-20-141-30-141-80,0-46,44-74,107-74,76,0,135,36,179,92l101-110C538,52,440,0,316,0,163,0,41,88,41,229c0,144,116,179,222,202,109,24,170,32,170,89,0,54-49,82-118,82-77,0-156-38-212-111Z"/>
    </g>
  </g>
</svg>