<?xml version="1.0" encoding="UTF-8"?>
<svg xmlns="http://www.w3.org/2000/svg" width="733" height="740" version="1.1" viewBox="0 0 733 740" preserveAspectRatio="none">
  <!-- Generator: Adobe Illustrator 28.7.1, SVG Export Plug-In . SVG Version: 1.2.0 Build 142)  -->
  <g>
    <g id="Layer_1">
      <path d="M273,507.9483871l90-196.7516129,91,196.7516129h-181ZM462,166.1806452h-191L6,729h165l52-112.8774194h282l52,112.8774194h170L462,166.1806452ZM295,0c-77,0-125,55.6548387-128,135.6096774h106c5-26.6516129,18-39.9774194,42-39.9774194,36,0,65,39.9774194,125,39.9774194,77,0,125-54.0870968,128-135.6096774h-105c-6,27.4354839-18,40.7612903-42,40.7612903-36,0-66-40.7612903-126-40.7612903Z"/>
    </g>
  </g>
</svg>