<?xml version="1.0" encoding="UTF-8"?>
<svg xmlns="http://www.w3.org/2000/svg" width="733" height="740" version="1.1" viewBox="0 0 733 740" preserveAspectRatio="none">
  <!-- Generator: Adobe Illustrator 28.7.1, SVG Export Plug-In . SVG Version: 1.2.0 Build 142)  -->
  <g>
    <g id="Layer_1">
      <path d="M273,531.8974113l90-175.4352828,91,175.4352828h-181ZM462,227.1572387h-191L6,729h165l52-100.6481304h282l52,100.6481304h170L462,227.1572387ZM564,200.5973154l-115-110.4333653h-166l-115,110.4333653h119l79-44.7325024,79,44.7325024h119ZM714,70.5934803c0-41.936721-51-70.5934803-132-70.5934803-66,0-118,20.2694151-145,58.7114094l87,23.7641419c8-12.5810163,22-22.3662512,48-22.3662512,22,0,36,6.2905081,36,18.8715244,0,11.8820709-16,18.8715244-47,18.8715244v44.033557c113,0,153-32.8504314,153-71.2924257Z"/>
    </g>
  </g>
</svg>