<?xml version="1.0" encoding="UTF-8"?>
<svg xmlns="http://www.w3.org/2000/svg" width="733" height="740" version="1.1" viewBox="0 0 733 740" preserveAspectRatio="none">
  <!-- Generator: Adobe Illustrator 28.7.1, SVG Export Plug-In . SVG Version: 1.2.0 Build 142)  -->
  <g>
    <g id="Layer_1">
      <path d="M273,548.3514938l90-160.7899824,91,160.7899824h-181ZM462,269.0509666h-191L6,729h165l52-92.2460457h282l52,92.2460457h170l-265-459.9490334ZM366,180.0079086c-36,0-63-16.0149385-63-39.0764499h-115c0,60.2161687,64,105.0579965,178,105.0579965s178-44.8418278,178-105.0579965h-115c0,23.0615114-27,39.0764499-63,39.0764499ZM505,64.7003515C505,26.2644991,454,0,373,0c-66,0-118,18.5773286-145,53.8101933l87,21.7803163c8-11.5307557,22-20.4991213,48-20.4991213,22,0,36,5.7653779,36,17.2961336,0,10.8901582-16,17.2961336-47,17.2961336v40.357645c113,0,153-30.1080844,153-65.340949Z"/>
    </g>
  </g>
</svg>