<?xml version="1.0" encoding="UTF-8"?>
<svg xmlns="http://www.w3.org/2000/svg" width="736" height="740" version="1.1" viewBox="0 0 736 740" preserveAspectRatio="none">
  <!-- Generator: Adobe Illustrator 28.7.1, SVG Export Plug-In . SVG Version: 1.2.0 Build 142)  -->
  <g>
    <g id="Layer_1">
      <path d="M545,477.8717201c0,97.7667638-73,159.4023324-177,159.4023324s-176-61.6355685-176-159.4023324,72-159.4023324,176-159.4023324,177,61.6355685,177,159.4023324ZM24,477.8717201c0,153.7346939,143,262.1282799,344,262.1282799,202,0,344-108.393586,344-262.1282799s-142-262.1282799-344-262.1282799c-201,0-344,108.393586-344,262.1282799ZM566,196.6151603l-115-111.9358601h-166l-115,111.9358601h119l79-45.3411079,79,45.3411079h119ZM563,122.9358601h132l-77-111.9358601h-211l156,111.9358601Z"/>
    </g>
  </g>
</svg>