<?xml version="1.0" encoding="UTF-8"?>
<svg xmlns="http://www.w3.org/2000/svg" width="736" height="740" version="1.1" viewBox="0 0 736 740" preserveAspectRatio="none">
  <!-- Generator: Adobe Illustrator 28.7.1, SVG Export Plug-In . SVG Version: 1.2.0 Build 142)  -->
  <g>
    <g id="Layer_1">
      <path d="M288,639.657584v89.342416h162v-89.342416h-162ZM545,372.9346049c0,89.9945504-73,146.7302452-177,146.7302452s-176-56.7356948-176-146.7302452,72-146.7302452,176-146.7302452,177,56.7356948,177,146.7302452ZM24,372.9346049c0,141.5131698,143,241.2897366,344,241.2897366,202,0,344-99.7765668,344-241.2897366s-142-241.2897366-344-241.2897366c-201,0-344,99.7765668-344,241.2897366ZM566,114.0372389L451,11h-166l-115,103.0372389h119l79-41.7366031,79,41.7366031h119Z"/>
    </g>
  </g>
</svg>