<?xml version="1.0" encoding="UTF-8"?>
<svg xmlns="http://www.w3.org/2000/svg" width="736" height="740" version="1.1" viewBox="0 0 736 740" preserveAspectRatio="none">
  <!-- Generator: Adobe Illustrator 28.7.1, SVG Export Plug-In . SVG Version: 1.2.0 Build 142)  -->
  <g>
    <g id="Layer_1">
      <path d="M545,449.0329437c0,108.522848-73,176.9394261-177,176.9394261s-176-68.4165781-176-176.9394261,72-176.9394261,176-176.9394261,177,68.4165781,177,176.9394261ZM526,174.5802338c-43,0-87-16.5143464-158-16.5143464-201,0-344,120.3188098-344,290.9670563s143,290.9670563,344,290.9670563c202,0,344-120.3188098,344-290.9670563,0-81.7853348-35-151.7747078-93-203.6769394,81-14.9415515,115-62.1253985,98-148.629118h-132c14,45.6110521,3,77.8533475-59,77.8533475ZM295,0c-77,0-125,55.8342189-128,136.0467588h106c5-26.7375133,18-40.1062699,42-40.1062699,36,0,65,40.1062699,125,40.1062699,77,0,125-54.261424,128-136.0467588h-105c-6,27.5239107-18,40.8926674-42,40.8926674-36,0-66-40.8926674-126-40.8926674Z"/>
    </g>
  </g>
</svg>