<?xml version="1.0" encoding="UTF-8"?>
<svg xmlns="http://www.w3.org/2000/svg" width="751.2829765" height="740" version="1.1" viewBox="0 0 751.2829765 740" preserveAspectRatio="none">
  <!-- Generator: Adobe Illustrator 28.7.1, SVG Export Plug-In . SVG Version: 1.2.0 Build 142)  -->
  <g>
    <g id="Layer_1">
      <path d="M350,740c183,0,302-79.3132154,302-231.7793965V251.8002081c78-14.6305931,112-60.062435,95-141.685744h-132c10,43.8917794,0,68.5327784-56,68.5327784h-74v325.723205c0,86.2434964-53,123.2049948-135,123.2049948s-136-36.9614984-136-123.2049948V178.6472425H48v329.5733611c0,152.4661811,119,231.7793965,302,231.7793965ZM485,77.773153C485,31.5712799,434,0,353,0c-66,0-118,22.3309053-145,64.6826223l87,26.1810614c8-13.8605619,22-24.640999,48-24.640999,22,0,36,6.930281,36,20.7908429,0,13.0905307-16,20.7908429-47,20.7908429v48.5119667c113,0,153-36.1914672,153-78.5431842Z"/>
    </g>
  </g>
</svg>