<?xml version="1.0" encoding="UTF-8"?>
<svg xmlns="http://www.w3.org/2000/svg" width="527" height="718" version="1.1" viewBox="0 0 527 718" preserveAspectRatio="none">
  <!-- Generator: Adobe Illustrator 28.7.1, SVG Export Plug-In . SVG Version: 1.2.0 Build 142)  -->
  <g>
    <g id="Layer_1">
      <g id="Layer_1-2" data-name="Layer_1">
        <g id="Layer_1-2">
          <path d="M197,441.2400549L5,597.8408779v120.1591221h522v-140.8422497H244l114-90.611797c91-70.9135802,166-148.7215364,166-258.0466392C524,93.5665295,423,0,265,0,121,0,0,94.5514403,0,235.39369c0,25.6076818,3,47.2757202,13,74.8532236h158c-7-19.6982167-11-41.3662551-11-64.0192044,0-58.1097394,38-106.3703704,100-106.3703704,63,0,98,43.3360768,98,99.4759945,0,70.9135802-67,127.0534979-161,201.9067215Z"/>
        </g>
      </g>
    </g>
  </g>
</svg>