<?xml version="1.0" encoding="UTF-8"?>
<svg xmlns="http://www.w3.org/2000/svg" width="534.6189189" height="718" version="1.1" viewBox="0 0 534.6189189 718" preserveAspectRatio="none">
  <!-- Generator: Adobe Illustrator 28.7.1, SVG Export Plug-In . SVG Version: 1.2.0 Build 142)  -->
  <g>
    <g id="Layer_1">
      <g id="Layer_1-2" data-name="Layer_1">
        <path d="M276.527027,718c158.1540541,0,258.0918919-94.1162162,258.0918919-208.6081081,0-86.3540541-47.5432432-136.8081081-109.6405405-161.0648649,52.3945946-20.3756757,94.1162162-76.6513514,94.1162162-147.4810811C519.0945946,85.3837838,429.8297297,0,281.3783784,0,129.0459459,0,33.9594595,97.9972973,17.4648649,219.2810811l148.4513514,17.4648649c9.7027027-59.1864865,48.5135135-102.8486486,108.6702703-102.8486486,55.3054054,0,88.2945946,30.0783784,88.2945946,77.6216216,0,52.3945946-39.7810811,75.6810811-100.9081081,75.6810811h-63.0675676v129.0459459h65.0081081c65.9783784,0,112.5513514,22.3162162,112.5513514,79.5621622,0,58.2162162-44.6324324,88.2945946-101.8783784,88.2945946-61.127027,0-108.6702703-38.8108108-116.4324324-107.7L0,501.6297297c19.4054054,141.6594595,130.9864865,216.3702703,276.527027,216.3702703Z"/>
      </g>
    </g>
  </g>
</svg>