<?xml version="1.0" encoding="UTF-8"?>
<svg xmlns="http://www.w3.org/2000/svg" width="537.7613169" height="718" version="1.1" viewBox="0 0 537.7613169 718" preserveAspectRatio="none">
  <!-- Generator: Adobe Illustrator 28.7.1, SVG Export Plug-In . SVG Version: 1.2.0 Build 142)  -->
  <g>
    <g id="Layer_1">
      <g id="Layer_1-2" data-name="Layer_1">
        <path d="M41.3662551,387.0699588l149.7064472,17.7283951c15.7585734-23.6378601,45.3058985-43.3360768,87.6570645-43.3360768,64.0192044,0,104.4005487,49.2455418,104.4005487,112.2798354,0,64.0192044-48.260631,109.3251029-110.3100137,109.3251029s-104.4005487-41.3662551-113.2647462-107.3552812L0,501.3196159c20.6831276,139.8573388,128.0384088,216.6803841,273.8052126,216.6803841,150.691358,0,263.9561043-103.4156379,263.9561043-248.1975309,0-136.9026063-88.6419753-238.3484225-234.4087791-238.3484225-50.2304527,0-90.611797,18.7133059-116.2194787,39.3964335l11.81893-130.0082305h294.4883402V0H73.8683128l-32.5020576,387.0699588Z"/>
      </g>
    </g>
  </g>
</svg>