<?xml version="1.0" encoding="UTF-8"?>
<svg xmlns="http://www.w3.org/2000/svg" width="586" height="740" version="1.1" viewBox="0 0 586 740" preserveAspectRatio="none">
  <!-- Generator: Adobe Illustrator 28.7.1, SVG Export Plug-In . SVG Version: 1.2.0 Build 142)  -->
  <g>
    <g id="Layer_1">
      <path d="M57,404l152,18c16-24,46-44,89-44,65,0,106,50,106,114,0,65-49,111-112,111s-106-42-115-109l-162,26c21,142,130,220,278,220,153,0,268-105,268-252,0-139-90-242-238-242-51,0-92,19-118,40l12-132h299V11H90l-33,393Z"/>
    </g>
  </g>
</svg>