<?xml version="1.0" encoding="UTF-8"?>
<svg xmlns="http://www.w3.org/2000/svg" width="553" height="720" version="1.1" viewBox="0 0 553 720" preserveAspectRatio="none">
  <!-- Generator: Adobe Illustrator 28.7.1, SVG Export Plug-In . SVG Version: 1.2.0 Build 142)  -->
  <g>
    <g id="Layer_1">
      <g id="Layer_1-2" data-name="Layer_1">
        <path d="M399,479.3135135c0,64.0378378-50,110.6108108-116,110.6108108-65,0-115-46.572973-115-110.6108108,0-63.0675676,51-111.5810811,116-111.5810811s115,48.5135135,115,111.5810811ZM421,214.4297297l132-56.2756757C516,64.0378378,442,0,308,0,119,0,0,156.2135135,0,370.6432432c0,193.0837838,98,347.3567568,284,347.3567568,157,0,266-103.8189189,266-244.5081081,0-129.0459459-98-228.0135135-238-228.0135135-70,0-124,29.1081081-155,65.9783784,0-98.9675676,57-181.4405405,147-181.4405405,63,0,101,35.9,117,84.4135135Z"/>
      </g>
    </g>
  </g>
</svg>