<?xml version="1.0" encoding="UTF-8"?>
<svg xmlns="http://www.w3.org/2000/svg" width="609" height="740" version="1.1" viewBox="0 0 609 740" preserveAspectRatio="none">
  <!-- Generator: Adobe Illustrator 28.7.1, SVG Export Plug-In . SVG Version: 1.2.0 Build 142)  -->
  <g>
    <g id="Layer_1">
      <path d="M305,420c69,0,116,39,116,95,0,58-47,96-116,96-70,0-116-38-116-96,0-56,46-95,116-95ZM305,292c-58,0-98-34-98-84s40-84,98-84,98,34,98,84-40,84-98,84ZM305,0C170,0,57,76,57,205c0,68,35,120,94,151-71,26-127,87-127,172,0,131,122,212,281,212,158,0,280-81,280-212,0-85-56-146-127-172,59-31,94-83,94-151C552,76,439,0,305,0Z"/>
    </g>
  </g>
</svg>