<?xml version="1.0" encoding="UTF-8"?>
<svg xmlns="http://www.w3.org/2000/svg" width="561" height="718" version="1.1" viewBox="0 0 561 718" preserveAspectRatio="none">
  <!-- Generator: Adobe Illustrator 28.7.1, SVG Export Plug-In . SVG Version: 1.2.0 Build 142)  -->
  <g>
    <g id="Layer_1">
      <g id="Layer_1-2" data-name="Layer_1">
        <path d="M281,407.5135135c69,0,116,37.8405405,116,92.1756757,0,56.2756757-47,93.1459459-116,93.1459459-70,0-116-36.8702703-116-93.1459459,0-54.3351351,46-92.1756757,116-92.1756757ZM281,283.3189189c-58,0-98-32.9891892-98-81.5027027s40-81.5027027,98-81.5027027,98,32.9891892,98,81.5027027-40,81.5027027-98,81.5027027ZM281,0C146,0,33,73.7405405,33,198.9054054c0,65.9783784,35,116.4324324,94,146.5108108C56,370.6432432,0,429.8297297,0,512.3027027c0,127.1054054,122,205.6972973,281,205.6972973,158,0,280-78.5918919,280-205.6972973,0-82.472973-56-141.6594595-127-166.8864865,59-30.0783784,94-80.5324324,94-146.5108108C528,73.7405405,415,0,281,0Z"/>
      </g>
    </g>
  </g>
</svg>