<?xml version="1.0" encoding="UTF-8"?>
<svg xmlns="http://www.w3.org/2000/svg" width="551.549885" height="718" version="1.1" viewBox="0 0 551.549885 718" preserveAspectRatio="none">
  <!-- Generator: Adobe Illustrator 28.7.1, SVG Export Plug-In . SVG Version: 1.2.0 Build 142)  -->
  <g>
    <g id="Layer_1">
      <g id="Layer_1-2" data-name="Layer_1">
        <path d="M154,238.6864865c0-64.0378378,50-110.6108108,116-110.6108108,65,0,115,46.572973,115,110.6108108,0,63.0675676-51,111.5810811-116,111.5810811s-115-48.5135135-115-111.5810811ZM132,503.5702703L0,559.8459459c36,94.1162162,111,158.1540541,245,158.1540541,189,0,307-156.2135135,307-370.6432432C552,154.272973,455,0,269,0,112,0,3,103.8189189,3,244.5081081c0,129.0459459,98,228.0135135,238,228.0135135,70,0,124-29.1081081,155-65.9783784,0,98.9675676-57,181.4405405-147,181.4405405-63,0-101-35.9-117-84.4135135Z"/>
      </g>
    </g>
  </g>
</svg>