<?xml version="1.0" encoding="UTF-8"?>
<svg xmlns="http://www.w3.org/2000/svg" width="858" height="718" version="1.1" viewBox="0 0 858 718" preserveAspectRatio="none">
  <!-- Generator: Adobe Illustrator 28.7.1, SVG Export Plug-In . SVG Version: 1.2.0 Build 142)  -->
  <g>
    <g id="Layer_1">
      <g id="Layer_1-2" data-name="Layer_1">
        <path d="M481,368.3800393c-11,43.4893268-34,73.3349091-72,73.3349091-36,0-54-22.1710073-54-59.6912236,0-60.543941,33-113.4133071,87-113.4133071,33,0,49,23.0237543,49,46.900226,0,9.3800393-2,19.6128255-10,52.8693661v.0000296ZM653,447.6840885c-26,0-39-11.9382506-32-45.1947616l46-220.0047568h-134l-10,38.3729189c-17-23.8764865-54-46.0475086-110-46.0475086-119,0-206,101.4750713-206,210.6247027,0,92.9477346,69,150.9334939,161,150.9334939,51,0,100-15.3491498,127-46.900226,25,28.9928648,68,48.60572,135,48.60572,116,0,228-85.2731597,228-239.6175823C858,116.8242285,683,0,463,0,199,0,0,171.3990516,0,382.8764717c0,214.0356463,194,335.1235283,438,335.1235283,109,0,214-22.1710073,297-76.7458674l-55-74.1876561c-71,41.7838625-149,59.6912236-243,59.6912236-183,0-317-86.9786537-317-244.7339755,0-166.2826585,144-291.6342015,337-291.6342015,171,0,287,75.0403734,287,216.593828,0,92.9477346-46,140.7007076-91,140.7007076v.0000296Z"/>
      </g>
    </g>
  </g>
</svg>