<?xml version="1.0" encoding="UTF-8"?>
<svg xmlns="http://www.w3.org/2000/svg" width="907" height="740" version="1.1" viewBox="0 0 907 740" preserveAspectRatio="none">
  <!-- Generator: Adobe Illustrator 28.7.1, SVG Export Plug-In . SVG Version: 1.2.0 Build 142)  -->
  <g>
    <g id="Layer_1">
      <path d="M505,379.6674584c-11,44.8218527-34,75.5819477-72,75.5819477-36,0-54-22.8503563-54-61.52019,0-62.3990499,33-116.888361,87-116.888361,33,0,49,23.7292162,49,48.3372922,0,9.6674584-2,20.2137767-10,54.4893112ZM677,461.4014252c-26,0-39-12.304038-32-46.5795724l46-226.7458432h-134l-10,39.5486936c-17-24.608076-54-47.4584323-110-47.4584323-119,0-206,104.584323-206,217.0783848,0,95.7957245,69,155.5581948,161,155.5581948,51,0,100-15.8194774,127-48.3372922,25,29.8812352,68,50.0950119,135,50.0950119,116,0,228-87.8859857,228-246.95962C882,120.4038005,707,0,487,0,223,0,24,176.6508314,24,394.608076c0,220.5938242,194,345.391924,438,345.391924,109,0,214-22.8503563,297-79.0973872l-55-76.4608076c-71,43.064133-149,61.52019-243,61.52019-183,0-317-89.6437055-317-252.2327791,0-171.3776722,144-300.5700713,337-300.5700713,171,0,287,77.3396675,287,223.2304038,0,95.7957245-46,145.0118765-91,145.0118765Z"/>
    </g>
  </g>
</svg>