<?xml version="1.0" encoding="UTF-8"?>
<svg xmlns="http://www.w3.org/2000/svg" width="572" height="718" version="1.1" viewBox="0 0 572 718" preserveAspectRatio="none">
  <!-- Generator: Adobe Illustrator 28.7.1, SVG Export Plug-In . SVG Version: 1.2.0 Build 142)  -->
  <g>
    <g id="Layer_1">
      <g id="Layer_1-2" data-name="Layer_1">
        <path d="M160,580v-162h153c63,0,98,33,98,81s-35,81-98,81h-153ZM292,288h-132v-151h132c65,0,101,25,101,75s-36,76-101,76ZM0,0v718h327c154,0,245-75,245-202,0-86-50-146-119-171,47-20,97-69,97-152C550,68,466,0,309,0H0Z"/>
      </g>
    </g>
  </g>
</svg>