<?xml version="1.0" encoding="UTF-8"?>
<svg xmlns="http://www.w3.org/2000/svg" width="649" height="740" version="1.1" viewBox="0 0 649 740" preserveAspectRatio="none">
  <!-- Generator: Adobe Illustrator 28.7.1, SVG Export Plug-In . SVG Version: 1.2.0 Build 142)  -->
  <g>
    <g id="Layer_1">
      <path d="M217,591v-162h153c63,0,98,33,98,81s-35,81-98,81h-153ZM349,299h-132v-151h132c65,0,101,25,101,75s-36,76-101,76ZM57,11v718h327c154,0,245-75,245-202,0-86-50-146-119-171,47-20,97-69,97-152,0-125-84-193-241-193H57Z"/>
    </g>
  </g>
</svg>