<?xml version="1.0" encoding="UTF-8"?>
<svg xmlns="http://www.w3.org/2000/svg" width="592" height="740" version="1.1" viewBox="0 0 592 740" preserveAspectRatio="none">
  <!-- Generator: Adobe Illustrator 28.7.1, SVG Export Plug-In . SVG Version: 1.2.0 Build 142)  -->
  <g>
    <g id="Layer_1">
      <path d="M62,633.613566v95.3864734h421v-95.3864734H62ZM340,387.3430346v19.9444444c0,53.763285-35,84.1135266-84,84.1135266-56,0-85-39.8888889-85-93.6521739,0-55.4975845,29-94.5193237,85-94.5193237,49,0,84,30.3502415,84,84.1135266ZM220,587.6546288c54,0,94-19.0772947,118-45.0917874v37.2874396h145V173.1570442h93v-91.9178744h-93V11.0000394h-145v70.2391304h-161v91.9178744h161v76.3091787c-24-25.147343-64-43.3574879-118-43.3574879-122,0-194,84.9806763-194,190.7729469s72,190.7729469,194,190.7729469Z"/>
    </g>
  </g>
</svg>