<?xml version="1.0" encoding="UTF-8"?>
<svg xmlns="http://www.w3.org/2000/svg" width="550" height="718.0000219" version="1.1" viewBox="0 0 550 718.0000219" preserveAspectRatio="none">
  <!-- Generator: Adobe Illustrator 28.7.1, SVG Export Plug-In . SVG Version: 1.2.0 Build 142)  -->
  <g>
    <g id="Layer_1">
      <g id="Layer_1-2" data-name="Layer_1">
        <path d="M36,622.6135473v95.3864746h421v-95.3864746H36ZM314,376.343009v19.944458c0,53.7632751-35,84.1135254-84,84.1135254-56,0-85-39.8888855-85-93.6521912,0-55.4975891,29-94.5193176,85-94.5193176,49,0,84,30.3502502,84,84.1135254ZM194,576.654563c54,0,94-19.0772705,118-45.0917969v37.2874146h145V162.1570044h93v-91.9178772h-93V0h-145v70.2391272h-161v91.9178772h161v76.3091736c-24-25.1473389-64-43.3574829-118-43.3574829C72,195.108695,0,280.0893774,0,385.8816442s72,190.7729797,194,190.7729797v-.000061Z"/>
      </g>
    </g>
  </g>
</svg>