<?xml version="1.0" encoding="UTF-8"?>
<svg xmlns="http://www.w3.org/2000/svg" width="689" height="718" version="1.1" viewBox="0 0 689 718" preserveAspectRatio="none">
  <!-- Generator: Adobe Illustrator 28.7.1, SVG Export Plug-In . SVG Version: 1.2.0 Build 142)  -->
  <g>
    <g id="Layer_1">
      <g id="Layer_1-2" data-name="Layer_1">
        <path d="M521,309.2666014c0,115.3480737-73,188.0675031-177,188.0675031s-176-72.719459-176-188.0675031,72-188.0675179,176-188.0675179,177,72.7194442,177,188.0675179ZM0,309.2666014c0,181.3806685,143,309.2666014,344,309.2666014,30,0,59-2.5075778,86-8.3585728,29,47.6437406,95,91.1082836,163,107.82537l96-98.6309577c-59-12.5378296-101-31.7624937-130-61.8533084,81-55.1664739,129-142.0954415,129-248.2491325C688,127.8859181,546,0,344,0,143,0,0,127.8859181,0,309.2666014Z"/>
      </g>
    </g>
  </g>
</svg>