<?xml version="1.0" encoding="UTF-8"?>
<svg xmlns="http://www.w3.org/2000/svg" width="736" height="740" version="1.1" viewBox="0 0 736 740" preserveAspectRatio="none">
  <!-- Generator: Adobe Illustrator 28.7.1, SVG Export Plug-In . SVG Version: 1.2.0 Build 142)  -->
  <g>
    <g id="Layer_1">
      <path d="M545,318.7427241c0,118.8824214-73,193.8300349-177,193.8300349s-176-74.9476135-176-193.8300349,72-193.8300349,176-193.8300349,177,74.9476135,177,193.8300349ZM24,318.7427241c0,186.9383003,143,318.7427241,344,318.7427241,30,0,59-2.5844005,86-8.6146682,29,49.1036088,95,93.8998836,163,111.12922l96-101.653085c-59-12.9220023-101-32.7357392-130-63.7485448,81-56.8568102,129-146.4493597,129-255.8556461C712,131.8044237,570,0,368,0,167,0,24,131.8044237,24,318.7427241Z"/>
    </g>
  </g>
</svg>