<?xml version="1.0" encoding="UTF-8"?>
<svg xmlns="http://www.w3.org/2000/svg" width="598" height="718" version="1.1" viewBox="0 0 598 718" preserveAspectRatio="none">
  <!-- Generator: Adobe Illustrator 28.7.1, SVG Export Plug-In . SVG Version: 1.2.0 Build 142)  -->
  <g>
    <g id="Layer_1">
      <g id="Layer_1-2" data-name="Layer_1">
        <path d="M103,476.4027027L0,588.9540541c59,79.5621622,189,129.0459459,308,129.0459459,159,0,290-84.4135135,290-229.9540541,0-153.3027027-140-181.4405405-253-204.727027-92-19.4054054-141-29.1081081-141-77.6216216,0-44.6324324,44-71.8,107-71.8,76,0,135,34.9297297,179,89.2648649l101-106.7297297C538,50.4540541,440,0,316,0,163,0,41,85.3837838,41,222.1918919c0,139.7189189,116,173.6783784,222,195.9945946,109,23.2864865,170,31.0486486,170,86.3540541,0,52.3945946-49,79.5621622-118,79.5621622-77,0-156-36.8702703-212-107.7Z"/>
      </g>
    </g>
  </g>
</svg>