<?xml version="1.0" encoding="UTF-8"?>
<svg xmlns="http://www.w3.org/2000/svg" width="721" height="718" version="1.1" viewBox="0 0 721 718" preserveAspectRatio="none">
  <!-- Generator: Adobe Illustrator 28.7.1, SVG Export Plug-In . SVG Version: 1.2.0 Build 142)  -->
  <g>
    <g id="Layer_1">
      <g id="Layer_1-2" data-name="Layer_1">
        <path d="M267,500.2838785l90-193.7828002,91,193.7828002h-181ZM456,163.6731219h-191L0,718h165l52-111.1742153h282l52,111.1742153h170L456,163.6731219ZM289,0c-77,0-125,54.8150536-128,133.5634436h106c5-26.2494608,18-39.3741912,42-39.3741912,36,0,65,39.3741912,125,39.3741912,77,0,125-53.2709681,128-133.5634436h-105c-6,27.0215054-18,40.1462377-42,40.1462377-36,0-66-40.1462377-126-40.1462377Z"/>
      </g>
    </g>
  </g>
</svg>