<?xml version="1.0" encoding="UTF-8"?>
<svg xmlns="http://www.w3.org/2000/svg" width="733" height="740" version="1.1" viewBox="0 0 733 740" preserveAspectRatio="none">
  <!-- Generator: Adobe Illustrator 28.7.1, SVG Export Plug-In . SVG Version: 1.2.0 Build 142)  -->
  <g>
    <g id="Layer_1">
      <path d="M273,506.9935205l90-197.6015119,91,197.6015119h-181ZM316,104.7051836c0-22.8304536,20-40.150108,50-40.150108s50,17.3196544,50,40.150108c0,24.4049676-20,40.150108-50,40.150108s-50-15.7451404-50-40.150108ZM224,104.7051836c0,28.3412527,15,55.1079914,40,74.7894168L6,729h165l52-113.3650108h282l52,113.3650108h170L469,178.7073434c25-18.8941685,39-45.6609071,39-74.0021598C508,48.0226782,451,0,366,0c-84,0-142,48.0226782-142,104.7051836Z"/>
    </g>
  </g>
</svg>