<?xml version="1.0" encoding="UTF-8"?>
<svg xmlns="http://www.w3.org/2000/svg" width="721" height="718" version="1.1" viewBox="0 0 721 718" preserveAspectRatio="none">
  <!-- Generator: Adobe Illustrator 28.7.1, SVG Export Plug-In . SVG Version: 1.2.0 Build 142)  -->
  <g>
    <g id="Layer_1">
      <g id="Layer_1-2" data-name="Layer_1">
        <path d="M267,499.3434221l90-194.6198602,91,194.6198602h-181ZM310,103.1252713c0-22.4859595,20-39.5442768,50-39.5442768s50,17.0583172,50,39.5442768c0,24.0367177-20,39.5442693-50,39.5442693s-50-15.5075666-50-39.5442693ZM218,103.1252713c0,27.9136018,15,54.276453,40,73.6609038L0,718h165l52-111.6544074h282l52,111.6544074h170L463,176.0107923c25-18.6090679,39-44.9719191,39-72.8855285C502,47.2980563,445,0,360,0c-84,0-142,47.2980563-142,103.1252713Z"/>
      </g>
    </g>
  </g>
</svg>