<?xml version="1.0" encoding="UTF-8"?>
<svg xmlns="http://www.w3.org/2000/svg" width="688" height="718" version="1.1" viewBox="0 0 688 718" preserveAspectRatio="none">
  <!-- Generator: Adobe Illustrator 28.7.1, SVG Export Plug-In . SVG Version: 1.2.0 Build 142)  -->
  <g>
    <g id="Layer_1">
      <g id="Layer_1-2" data-name="Layer_1">
        <path d="M521,435.6833009c0,105.2965024-73,171.6790614-177,171.6790614s-176-66.382559-176-171.6790614,72-171.6790614,176-171.6790614,177,66.382559,177,171.6790614ZM0,435.6833009c0,165.5748983,143,282.3166991,344,282.3166991,202,0,344-116.7417416,344-282.3166991s-142-282.3166991-344-282.3166991C143,153.3666017,0,270.108373,0,435.6833009ZM272,0c-77,0-125,54.1742809-128,132.0021197h106c5-25.9426117,18-38.9139213,42-38.9139213,36,0,65,38.9139213,125,38.9139213,77,0,125-52.6482512,128-132.0021197h-105c-6,26.7056321-18,39.676938-42,39.676938-36,0-66-39.676938-126-39.676938Z"/>
      </g>
    </g>
  </g>
</svg>