<?xml version="1.0" encoding="UTF-8"?>
<svg xmlns="http://www.w3.org/2000/svg" width="700" height="740" version="1.1" viewBox="0 0 700 740" preserveAspectRatio="none">
  <!-- Generator: Adobe Illustrator 28.7.1, SVG Export Plug-In . SVG Version: 1.2.0 Build 142)  -->
  <g>
    <g id="Layer_1">
      <path d="M350,740c183,0,302-80.9989373,302-236.7056323V166.7162593h-167v332.6461211c0,88.0765143-53,125.8235919-135,125.8235919s-136-37.7470776-136-125.8235919V166.7162593H48v336.5781084c0,155.706695,119,236.7056323,302,236.7056323ZM277,0c-77,0-125,55.8342189-128,136.0467588h106c5-26.7375133,18-40.1062699,42-40.1062699,36,0,65,40.1062699,125,40.1062699,77,0,125-54.261424,128-136.0467588h-105c-6,27.5239107-18,40.8926674-42,40.8926674-36,0-66-40.8926674-126-40.8926674Z"/>
    </g>
  </g>
</svg>