<?xml version="1.0" encoding="UTF-8"?>
<svg xmlns="http://www.w3.org/2000/svg" width="736" height="740" version="1.1" viewBox="0 0 736 740" preserveAspectRatio="none">
  <!-- Generator: Adobe Illustrator 28.7.1, SVG Export Plug-In . SVG Version: 1.2.0 Build 142)  -->
  <g>
    <g id="Layer_1">
      <path d="M545,405.2811736c0,124.8410758-73,203.5452323-177,203.5452323s-176-78.7041565-176-203.5452323,72-203.5452323,176-203.5452323,177,78.7041565,177,203.5452323ZM526,89.5599022c-43,0-87-18.997555-158-18.997555C167,70.5623472,24,208.9731051,24,405.2811736s143,334.7188264,344,334.7188264c202,0,344-138.4107579,344-334.7188264,0-94.0831296-35-174.596577-93-234.3031785,81-17.1882641,115-71.4669927,98-170.9779951h-132c14,52.4694377,3,89.5599022-59,89.5599022Z"/>
    </g>
  </g>
</svg>