<?xml version="1.0" encoding="UTF-8"?>
<svg xmlns="http://www.w3.org/2000/svg" width="697.2687025" height="718" version="1.1" viewBox="0 0 697.2687025 718" preserveAspectRatio="none">
  <!-- Generator: Adobe Illustrator 28.7.1, SVG Export Plug-In . SVG Version: 1.2.0 Build 142)  -->
  <g>
    <g id="Layer_1">
      <g id="Layer_1-2" data-name="Layer_1">
        <path d="M521,393.2322658c0,121.1296005-73,197.493908-177,197.493908s-176-76.3643075-176-197.4938784,72-197.4938784,176-197.4938784,177,76.3643075,177,197.4938784v-.0000296ZM502,86.8973272c-43,0-87-18.4327659-158-18.4327659C143,68.4645613,0,202.7603956,0,393.2322658s143,324.7677342,344,324.7677342c202,0,344-134.2958491,344-324.7677342,0-91.286062-35-169.4058605-93-227.3374021,81-16.6772602,115-69.3422994,98-165.8948638h-132c14,50.9095334,3,86.8973124-59,86.8973124v.0000148Z"/>
      </g>
    </g>
  </g>
</svg>