<?xml version="1.0" encoding="UTF-8"?>
<svg xmlns="http://www.w3.org/2000/svg" width="721" height="718" version="1.1" viewBox="0 0 721 718" preserveAspectRatio="none">
  <!-- Generator: Adobe Illustrator 28.7.1, SVG Export Plug-In . SVG Version: 1.2.0 Build 142)  -->
  <g>
    <g id="Layer_1">
      <g id="Layer_1-2" data-name="Layer_1">
        <path d="M267,504.8673749l90-189.7031509,91,189.7031509h-181ZM456,175.3431641h-191L0,718h165l52-108.8336694h282l52,108.8336694h170L456,175.3431641ZM496,76.3347377C496,30.987368,445,0,364,0c-66,0-118,21.9178955-145,63.4863147l87,25.6968386c8-13.6042087,22-24.1852599,48-24.1852599,22,0,36,6.8021081,36,20.4063168,0,12.8484231-16,20.4063168-47,20.4063168v47.6147341c113,0,153-35.5221042,153-77.0905233Z"/>
      </g>
    </g>
  </g>
</svg>