<?xml version="1.0" encoding="UTF-8"?>
<svg xmlns="http://www.w3.org/2000/svg" width="733" height="740" version="1.1" viewBox="0 0 733 740" preserveAspectRatio="none">
  <!-- Generator: Adobe Illustrator 28.7.1, SVG Export Plug-In . SVG Version: 1.2.0 Build 142)  -->
  <g>
    <g id="Layer_1">
      <path d="M273,512.6021053l90-192.6094737,91,192.6094737h-181ZM462,178.0294737h-191L6,729h165l52-110.5010526h282l52,110.5010526h170L462,178.0294737ZM502,77.5042105C502,31.4621053,451,0,370,0c-66,0-118,22.2536842-145,64.4589474l87,26.0905263c8-13.8126316,22-24.5557895,48-24.5557895,22,0,36,6.9063158,36,20.7189474,0,13.0452632-16,20.7189474-47,20.7189474v48.3442105c113,0,153-36.0663158,153-78.2715789Z"/>
    </g>
  </g>
</svg>