<?xml version="1.0" encoding="UTF-8"?>
<svg xmlns="http://www.w3.org/2000/svg" width="721" height="718" version="1.1" viewBox="0 0 721 718" preserveAspectRatio="none">
  <!-- Generator: Adobe Illustrator 28.7.1, SVG Export Plug-In . SVG Version: 1.2.0 Build 142)  -->
  <g>
    <g id="Layer_1">
      <g id="Layer_1-2" data-name="Layer_1">
        <path d="M267,523.8715132l90-172.7881308,91,172.7881308h-181ZM456,223.7296291h-191L0,718h165l52-99.1294362h282l52,99.1294362h170L456,223.7296291ZM558,197.5704748l-115-108.7670178h-166l-115,108.7670178h119l79-44.0575222,79,44.0575222h119ZM708,69.5282864c0-41.3039318-51-69.5282864-132-69.5282864-66,0-118,19.9635664-145,57.8255045l87,23.4055638c8-12.3911795,22-22.0287611,48-22.0287611,22,0,36,6.195586,36,18.586773,0,11.7027819-16,18.5867655-47,18.5867655v43.3691246c113,0,153-32.3547478,153-70.216684Z"/>
      </g>
    </g>
  </g>
</svg>