<?xml version="1.0" encoding="UTF-8"?>
<svg xmlns="http://www.w3.org/2000/svg" width="721" height="718" version="1.1" viewBox="0 0 721 718" preserveAspectRatio="none">
  <!-- Generator: Adobe Illustrator 28.7.1, SVG Export Plug-In . SVG Version: 1.2.0 Build 142)  -->
  <g>
    <g id="Layer_1">
      <g id="Layer_1-2" data-name="Layer_1">
        <path d="M267,537.0562977l90-161.0527294,91,161.0527294h-181ZM456,257.2993598h-191L0,718h165l52-92.3967675h282l52,92.3967675h170l-265-460.7006402ZM558,232.9168953l-115-101.3798108h-166l-115,101.3798108h119l79-41.0652334,79,41.0652334h119ZM287,0c-77,0-125,45.5567475-128,111.0044678h106c5-21.8159043,18-32.7238639,42-32.7238639,36,0,65,32.7238639,125,32.7238639,77,0,125-44.2734599,128-111.0044678h-105c-6,22.4575518-18,33.365504-42,33.365504-36,0-66-33.365504-126-33.365504Z"/>
      </g>
    </g>
  </g>
</svg>