<?xml version="1.0" encoding="UTF-8"?>
<svg xmlns="http://www.w3.org/2000/svg" width="733" height="740" version="1.1" viewBox="0 0 733 740" preserveAspectRatio="none">
  <!-- Generator: Adobe Illustrator 28.7.1, SVG Export Plug-In . SVG Version: 1.2.0 Build 142)  -->
  <g>
    <g id="Layer_1">
      <path d="M273,545.2841823l90-163.5201072,91,163.5201072h-181ZM462,261.2412869h-191L6,729h165l52-93.8123324h282l52,93.8123324h170l-265-467.7587131ZM564,236.4852547l-115-102.9329759h-166l-115,102.9329759h119l79-41.69437,79,41.69437h119ZM293,0c-77,0-125,46.2546917-128,112.7050938h106c5-22.150134,18-33.2252011,42-33.2252011,36,0,65,33.2252011,125,33.2252011,77,0,125-44.9517426,128-112.7050938h-105c-6,22.8016086-18,33.8766756-42,33.8766756-36,0-66-33.8766756-126-33.8766756Z"/>
    </g>
  </g>
</svg>