<?xml version="1.0" encoding="UTF-8"?>
<svg xmlns="http://www.w3.org/2000/svg" width="721" height="718" version="1.1" viewBox="0 0 721 718" preserveAspectRatio="none">
  <!-- Generator: Adobe Illustrator 28.7.1, SVG Export Plug-In . SVG Version: 1.2.0 Build 142)  -->
  <g>
    <g id="Layer_1">
      <g id="Layer_1-2" data-name="Layer_1">
        <path d="M267,540.0773361l90-158.3637918,91,158.3637918h-181ZM456,264.9912104h-191L0,718h165l52-90.8541173h282l52,90.8541173h170l-265-453.0087896ZM360,177.2917354c-36,0-63-15.7732863-63-38.4868157h-115c0,59.3075596,64,103.4727614,178,103.4727614s178-44.1652017,178-103.4727614h-115c0,22.7135293-27,38.4868157-63,38.4868157ZM499,63.7240738c0-37.8558834-51-63.7240738-132-63.7240738-66,0-118,18.2970114-145,52.9982413l87,21.4516687c8-11.3567647,22-20.189808,48-20.189808,22,0,36,5.6783823,36,17.0351507,0,10.7258362-16,17.0351507-47,17.0351507v39.7486725c113,0,153-29.6537798,153-64.3550022Z"/>
      </g>
    </g>
  </g>
</svg>