<?xml version="1.0" encoding="UTF-8"?>
<svg xmlns="http://www.w3.org/2000/svg" width="721" height="718" version="1.1" viewBox="0 0 721 718" preserveAspectRatio="none">
  <!-- Generator: Adobe Illustrator 28.7.1, SVG Export Plug-In . SVG Version: 1.2.0 Build 142)  -->
  <g>
    <g id="Layer_1">
      <g id="Layer_1-2" data-name="Layer_1">
        <path d="M267,538.0213258l90-160.1937745,91,160.1937745h-181ZM456,259.7564453h-191L0,718h165l52-91.9040038h282l52,91.9040038h170l-265-458.2435547ZM360,171.0435577c-36,0-63-15.9555512-63-38.9315522h-115c0,59.9928864,64,104.6684388,178,104.6684388s178-44.6755524,178-104.6684388h-115c0,22.976001-27,38.9315522-63,38.9315522ZM296,0c-77,0-125,45.3137772-128,110.412439h106c5-21.6995515,18-32.5493347,42-32.5493347,36,0,65,32.5493347,125,32.5493347,77,0,125-44.0373352,128-110.412439h-105c-6,22.3377762-18,33.1875557-42,33.1875557-36,0-66-33.1875557-126-33.1875557Z"/>
      </g>
    </g>
  </g>
</svg>