<?xml version="1.0" encoding="UTF-8"?>
<svg xmlns="http://www.w3.org/2000/svg" width="733" height="740" version="1.1" viewBox="0 0 733 740" preserveAspectRatio="none">
  <!-- Generator: Adobe Illustrator 28.7.1, SVG Export Plug-In . SVG Version: 1.2.0 Build 142)  -->
  <g>
    <g id="Layer_1">
      <path d="M273,546.2640295l90-162.6480088,91,162.6480088h-181ZM462,263.7360142h-191L6,729.0000394h165l52-93.312005h282l52,93.312005h170l-265-465.2640251ZM366,173.6640094c-36,0-63-16.2000009-63-39.5280021h-115c0,60.9120033,64,106.2720057,178,106.2720057s178-45.3600025,178-106.2720057h-115c0,23.3280013-27,39.5280021-63,39.5280021ZM302,0c-77,0-125,46.0080025-128,112.1040061h106c5-22.0320012,18-33.0480018,42-33.0480018,36,0,65,33.0480018,125,33.0480018,77,0,125-44.7120024,128-112.1040061h-105c-6,22.6800012-18,33.6960018-42,33.6960018-36,0-66-33.6960018-126-33.6960018Z"/>
    </g>
  </g>
</svg>