<?xml version="1.0" encoding="UTF-8"?>
<svg xmlns="http://www.w3.org/2000/svg" width="507" height="718" version="1.1" viewBox="0 0 507 718" preserveAspectRatio="none">
  <!-- Generator: Adobe Illustrator 28.7.1, SVG Export Plug-In . SVG Version: 1.2.0 Build 142)  -->
  <g>
    <g id="Layer_1">
      <g id="Layer_1-2" data-name="Layer_1">
        <path d="M507,257.2993598H0v460.7006402h507v-91.7551688H164v-98.1715768h286v-90.4718512H164v-88.5469348h343v-91.7551388.0000301ZM452,232.9168953l-115-101.3798108h-166l-115,101.3798108h119l79-41.0652334,79,41.0652334h119ZM181,0C104,0,56,45.5567475,53,111.0044678h106c5-21.8159043,18-32.7238639,42-32.7238639,36,0,65,32.7238639,125,32.7238639,77,0,125-44.2734599,128-111.0044678h-105c-6,22.4575518-18,33.365504-42,33.365504C271,33.365504,241,0,181,0Z"/>
      </g>
    </g>
  </g>
</svg>