<?xml version="1.0" encoding="UTF-8"?>
<svg xmlns="http://www.w3.org/2000/svg" width="600" height="740" version="1.1" viewBox="0 0 600 740" preserveAspectRatio="none">
  <!-- Generator: Adobe Illustrator 28.7.1, SVG Export Plug-In . SVG Version: 1.2.0 Build 142)  -->
  <g>
    <g id="Layer_1">
      <path d="M564,261.2412869H57v467.7587131h507v-93.1608579H221v-99.6756032h286v-91.8579088H221v-89.9034853h343v-93.1608579ZM509,236.4852547l-115-102.9329759h-166l-115,102.9329759h119l79-41.69437,79,41.69437h119ZM238,0c-77,0-125,46.2546917-128,112.7050938h106c5-22.150134,18-33.2252011,42-33.2252011,36,0,65,33.2252011,125,33.2252011,77,0,125-44.9517426,128-112.7050938h-105c-6,22.8016086-18,33.8766756-42,33.8766756-36,0-66-33.8766756-126-33.8766756Z"/>
    </g>
  </g>
</svg>