<?xml version="1.0" encoding="UTF-8"?>
<svg xmlns="http://www.w3.org/2000/svg" width="688" height="718" version="1.1" viewBox="0 0 688 718" preserveAspectRatio="none">
  <!-- Generator: Adobe Illustrator 28.7.1, SVG Export Plug-In . SVG Version: 1.2.0 Build 142)  -->
  <g>
    <g id="Layer_1">
      <g id="Layer_1-2" data-name="Layer_1">
        <path d="M521,441.5587836c0,103.1050738-73,168.1061347-177,168.1061347s-176-65.0010609-176-168.1061347,72-168.1061347,176-168.1061347,177,65.0010312,177,168.1061347ZM0,441.5587836c0,162.1289998,143,276.4412164,344,276.4412164,202,0,344-114.3121574,344-276.4412164s-142-276.4412164-344-276.4412164C143,165.1175672,0,279.4297246,0,441.5587836ZM480,75.4609803C480,30.6326739,429,0,348,0c-66,0-118,21.6670141-145,62.7596279l87,25.4027049c8-13.4484943,22-23.9084286,48-23.9084286,22,0,36,6.7242472,36,20.1727341,0,12.7013525-16,20.1727341-47,20.1727341v47.0697153c113,0,153-35.1155047,153-76.2081074Z"/>
      </g>
    </g>
  </g>
</svg>