<?xml version="1.0" encoding="UTF-8"?>
<svg xmlns="http://www.w3.org/2000/svg" width="778" height="718" version="1.1" viewBox="0 0 778 718" preserveAspectRatio="none">
  <!-- Generator: Adobe Illustrator 28.7.1, SVG Export Plug-In . SVG Version: 1.2.0 Build 142)  -->
  <g>
    <g id="Layer_1">
      <g id="Layer_1-2" data-name="Layer_1">
        <path d="M521,459.8270308c0,96.2915356-73,156.9970657-177,156.9970657s-176-60.7055301-176-156.9970958,72-156.9970958,176-156.9970958,177,60.7055301,177,156.9970958v.0000301ZM0,459.8270308c0,151.4149825,143,258.1729692,344,258.1729692,202,0,344-106.7579866,344-258.1729692s-142-258.1729692-344-258.1729692C143,201.6540616,0,308.4120783,0,459.8270308ZM542,182.8143807l-115-110.2468412h-166l-115,110.2468412h119l79-44.6569508,79,44.6569508h119ZM566,0l-76,110.2468412h132L778,0h-212Z"/>
      </g>
    </g>
  </g>
</svg>