<?xml version="1.0" encoding="UTF-8"?>
<svg xmlns="http://www.w3.org/2000/svg" width="736" height="740" version="1.1" viewBox="0 0 736 740" preserveAspectRatio="none">
  <!-- Generator: Adobe Illustrator 28.7.1, SVG Export Plug-In . SVG Version: 1.2.0 Build 142)  -->
  <g>
    <g id="Layer_1">
      <path d="M545,480.227704c0,96.8880455-73,157.9696395-177,157.9696395s-176-61.0815939-176-157.9696395,72-157.9696395,176-157.9696395,177,61.0815939,177,157.9696395ZM24,480.227704c0,152.3529412,143,259.772296,344,259.772296,202,0,344-107.4193548,344-259.772296s-142-259.772296-344-259.772296c-201,0-344,107.4193548-344,259.772296ZM566,201.4990512l-115-110.9297913h-166l-115,110.9297913h119l79-44.9335863,79,44.9335863h119ZM716,70.9108159C716,28.7855787,665,0,584,0,518,0,466,20.3605313,439,58.9753321l87,23.8709677c8-12.6375712,22-22.4667932,48-22.4667932,22,0,36,6.3187856,36,18.9563567,0,11.9354839-16,18.9563567-47,18.9563567v44.2314991c113,0,153-32.9981025,153-71.6129032Z"/>
    </g>
  </g>
</svg>