<?xml version="1.0" encoding="UTF-8"?>
<svg xmlns="http://www.w3.org/2000/svg" width="692" height="718" version="1.1" viewBox="0 0 692 718" preserveAspectRatio="none">
  <!-- Generator: Adobe Illustrator 28.7.1, SVG Export Plug-In . SVG Version: 1.2.0 Build 142)  -->
  <g>
    <g id="Layer_1">
      <g id="Layer_1-2" data-name="Layer_1">
        <path d="M521,465.9506522c0,94.007576-73,153.2732405-177,153.2732405s-176-59.2656644-176-153.2732405,72-153.2732405,176-153.2732405,177,59.2656644,177,153.2732405ZM0,465.9506522c0,147.8235242,143,252.0493478,344,252.0493478,202,0,344-104.2258236,344-252.0493478s-142-252.0493478-344-252.0493478C143,213.9013043,0,318.127128,0,465.9506522ZM542,195.5085415l-115-107.6318815h-166l-115,107.6318815h119l79-43.5977302,79,43.5977302h119ZM692,68.8026531c0-40.8728628-51-68.8026531-132-68.8026531-66,0-118,19.7552178-145,57.2220097l87,23.1612904c8-12.2618616,22-21.7988614,48-21.7988614,22,0,36,6.1309271,36,18.3927887,0,11.5806471-16,18.3927924-47,18.3927924v42.9165008c113,0,153-32.0170831,153-69.4838676Z"/>
      </g>
    </g>
  </g>
</svg>