<?xml version="1.0" encoding="UTF-8"?>
<svg xmlns="http://www.w3.org/2000/svg" width="688" height="718" version="1.1" viewBox="0 0 688 718" preserveAspectRatio="none">
  <!-- Generator: Adobe Illustrator 28.7.1, SVG Export Plug-In . SVG Version: 1.2.0 Build 142)  -->
  <g>
    <g id="Layer_1">
      <g id="Layer_1-2" data-name="Layer_1">
        <path d="M521,482.9026667c0,87.6849482-73,142.9645926-177,142.9645926s-176-55.2796444-176-142.9646222,72-142.9646222,176-142.9646222,177,55.2796444,177,142.9646222v.0000296ZM0,482.9026667c0,137.8813926,143,235.0973333,344,235.0973333,202,0,344-97.2159407,344-235.097363s-142-235.0973481-344-235.0973481C143,247.8052889,0,345.0212148,0,482.902637v.0000296ZM542,230.6495556l-115-100.3929185h-166l-115,100.3929185h119l79-40.6654815,79,40.6654815h119ZM271,0c-77,0-125,45.1132741-128,109.9238963h106c5-21.6035407,18-32.4053111,42-32.4053111,36,0,65,32.4053111,125,32.4053111,77,0,125-43.8424741,128-109.9238963h-105c-6,22.2389389-18,33.0407074-42,33.0407074-36,0-66-33.0407074-126-33.0407074Z"/>
      </g>
    </g>
  </g>
</svg>