<?xml version="1.0" encoding="UTF-8"?>
<svg xmlns="http://www.w3.org/2000/svg" width="736" height="740" version="1.1" viewBox="0 0 736 740" preserveAspectRatio="none">
  <!-- Generator: Adobe Illustrator 28.7.1, SVG Export Plug-In . SVG Version: 1.2.0 Build 142)  -->
  <g>
    <g id="Layer_1">
      <path d="M545,497.699115c0,90.3716814-73,147.3451327-177,147.3451327s-176-56.9734513-176-147.3451327,72-147.3451327,176-147.3451327,177,56.9734513,177,147.3451327ZM24,497.699115c0,142.1061947,143,242.300885,344,242.300885,202,0,344-100.1946903,344-242.300885s-142-242.300885-344-242.300885c-201,0-344,100.1946903-344,242.300885ZM566,237.7168142l-115-103.4690265h-166l-115,103.4690265h119l79-41.9115044,79,41.9115044h119ZM295,0c-77,0-125,46.4955752-128,113.2920354h106c5-22.2654867,18-33.3982301,42-33.3982301,36,0,65,33.3982301,125,33.3982301,77,0,125-45.1858407,128-113.2920354h-105c-6,22.920354-18,34.0530973-42,34.0530973-36,0-66-34.0530973-126-34.0530973Z"/>
    </g>
  </g>
</svg>