<?xml version="1.0" encoding="UTF-8"?>
<svg xmlns="http://www.w3.org/2000/svg" width="688" height="718" version="1.1" viewBox="0 0 688 718" preserveAspectRatio="none">
  <!-- Generator: Adobe Illustrator 28.7.1, SVG Export Plug-In . SVG Version: 1.2.0 Build 142)  -->
  <g>
    <g id="Layer_1">
      <g id="Layer_1-2" data-name="Layer_1">
        <path d="M264,628.6575928v89.3424072h162v-89.3424072h-162ZM521,361.9346008c0,89.9945374-73,146.7302551-177,146.7302551s-176-56.7356873-176-146.7302246,72-146.7302399,176-146.7302399,177,56.7357025,177,146.7302399v-.0000305ZM0,361.9346008c0,141.5131531,143,241.2897644,344,241.2897644,202,0,344-99.7765503,344-241.2897339s-142-241.2897339-344-241.2897339C143,120.6448975,0,220.421463,0,361.9346313v-.0000305ZM542,103.0372391L427,0h-166l-115,103.0372391h119l79-41.7366028,79,41.7366028h119Z"/>
      </g>
    </g>
  </g>
</svg>