<?xml version="1.0" encoding="UTF-8"?>
<svg xmlns="http://www.w3.org/2000/svg" width="736" height="740" version="1.1" viewBox="0 0 736 740" preserveAspectRatio="none">
  <!-- Generator: Adobe Illustrator 28.7.1, SVG Export Plug-In . SVG Version: 1.2.0 Build 142)  -->
  <g>
    <g id="Layer_1">
      <path d="M545,448.4c0,108.7589189-73,177.3243243-177,177.3243243s-176-68.5654054-176-177.3243243,72-177.3243243,176-177.3243243,177,68.5654054,177,177.3243243ZM526,173.3502703c-43,0-87-16.5502703-158-16.5502703-201,0-344,120.5805405-344,291.6s143,291.6,344,291.6c202,0,344-120.5805405,344-291.6,0-81.9632432-35-152.1048649-93-204.12,81-14.9740541,115-62.2605405,98-148.9524324h-132c14,45.7102703,3,78.0227027-59,78.0227027ZM373,11l-76,124.5210811h132L585,11h-212Z"/>
    </g>
  </g>
</svg>