<?xml version="1.0" encoding="UTF-8"?>
<svg xmlns="http://www.w3.org/2000/svg" width="697.2687025" height="718" version="1.1" viewBox="0 0 697.2687025 718" preserveAspectRatio="none">
  <!-- Generator: Adobe Illustrator 28.7.1, SVG Export Plug-In . SVG Version: 1.2.0 Build 142)  -->
  <g>
    <g id="Layer_1">
      <g id="Layer_1-2" data-name="Layer_1">
        <path d="M521,430.799994c0,107.1178602-73,174.6486348-177,174.6486348s-176-67.5308347-176-174.6486649,72-174.6486649,176-174.6486649,177,67.5308047,177,174.6486649v.0000301ZM502,159.9005358c-43,0-87-16.3005479-158-16.3005479C143,143.599988,0,262.3610645,0,430.799994s143,287.200006,344,287.200006c202,0,344-118.7611066,344-287.200006,0-80.7264698-35-149.8097234-93-201.0399952,81-14.748114,115-61.3210843,98-146.7048707h-132c14,45.0205364,3,76.8454077-59,76.8454077ZM349,0l-76,122.6421686h132L561,0h-212Z"/>
      </g>
    </g>
  </g>
</svg>