<?xml version="1.0" encoding="UTF-8"?>
<svg xmlns="http://www.w3.org/2000/svg" width="736" height="740" version="1.1" viewBox="0 0 736 740" preserveAspectRatio="none">
  <!-- Generator: Adobe Illustrator 28.7.1, SVG Export Plug-In . SVG Version: 1.2.0 Build 142)  -->
  <g>
    <g id="Layer_1">
      <path d="M545,455.0884495c0,106.264308-73,173.2570239-177,173.2570239s-176-66.9927159-176-173.2570239,72-173.2570239,176-173.2570239,177,66.9927159,177,173.2570239ZM526,186.3475546c-43,0-87-16.1706556-158-16.1706556-201,0-344,117.8147763-344,284.9115505s143,284.9115505,344,284.9115505c202,0,344-117.8147763,344-284.9115505,0-80.0832466-35-148.616025-93-199.4380853,81-14.6305931,115-60.8324662,98-145.5359001h-132c14,44.6618106,3,76.2330905-59,76.2330905ZM504,77.773153C504,31.5712799,453,0,372,0c-66,0-118,22.3309053-145,64.6826223l87,26.1810614c8-13.8605619,22-24.640999,48-24.640999,22,0,36,6.930281,36,20.7908429,0,13.0905307-16,20.7908429-47,20.7908429v48.5119667c113,0,153-36.1914672,153-78.5431842Z"/>
    </g>
  </g>
</svg>