<?xml version="1.0" encoding="UTF-8"?>
<svg xmlns="http://www.w3.org/2000/svg" width="697.2687025" height="718" version="1.1" viewBox="0 0 697.2687025 718" preserveAspectRatio="none">
  <!-- Generator: Adobe Illustrator 28.7.1, SVG Export Plug-In . SVG Version: 1.2.0 Build 142)  -->
  <g>
    <g id="Layer_1">
      <g id="Layer_1-2" data-name="Layer_1">
        <path d="M521,441.5587836c0,103.1050738-73,168.1061347-177,168.1061347s-176-65.0010609-176-168.1061347,72-168.1061347,176-168.1061347,177,65.0010312,177,168.1061347ZM502,180.8074872c-43,0-87-15.6899051-158-15.6899051C143,165.117582,0,279.4297542,0,441.5587836s143,276.4412164,344,276.4412164c202,0,344-114.3121574,344-276.4412164,0-77.7023985-35-144.1977135-93-193.5088396,81-14.1956362,115-59.0239259,98-141.2091608h-132c14,43.3340356,3,73.966704-59,73.966704ZM480,75.4609803C480,30.6326739,429,0,348,0c-66,0-118,21.6670141-145,62.7596279l87,25.4027049c8-13.4484943,22-23.9084286,48-23.9084286,22,0,36,6.7242472,36,20.1727341,0,12.7013525-16,20.1727341-47,20.1727341v47.0697153c113,0,153-35.1155047,153-76.2081074Z"/>
      </g>
    </g>
  </g>
</svg>