<?xml version="1.0" encoding="UTF-8"?>
<svg xmlns="http://www.w3.org/2000/svg" width="736" height="740" version="1.1" viewBox="0 0 736 740" preserveAspectRatio="none">
  <!-- Generator: Adobe Illustrator 28.7.1, SVG Export Plug-In . SVG Version: 1.2.0 Build 142)  -->
  <g>
    <g id="Layer_1">
      <path d="M288,628.5241449v100.4758551h162v-100.4758551h-162ZM545,328.5633803c0,101.2092555-73,165.0150905-177,165.0150905s-176-63.805835-176-165.0150905,72-165.0150905,176-165.0150905,177,63.805835,177,165.0150905ZM526,72.6066398c-43,0-87-15.4014085-158-15.4014085C167,57.2052314,24,169.415493,24,328.5633803s143,271.3581489,344,271.3581489c202,0,344-112.2102616,344-271.3581489,0-76.2736419-35-141.5462777-93-189.9507042,81-13.9346076,115-57.9386318,98-138.6126761h-132c14,42.5372233,3,72.6066398-59,72.6066398Z"/>
    </g>
  </g>
</svg>