<?xml version="1.0" encoding="UTF-8"?>
<svg xmlns="http://www.w3.org/2000/svg" width="697.2687025" height="718" version="1.1" viewBox="0 0 697.2687025 718" preserveAspectRatio="none">
  <!-- Generator: Adobe Illustrator 28.7.1, SVG Export Plug-In . SVG Version: 1.2.0 Build 142)  -->
  <g>
    <g id="Layer_1">
      <g id="Layer_1-2" data-name="Layer_1">
        <path d="M264,619.0402682v98.9597318h162v-98.9597318h-162ZM521,323.6056467c0,99.6820939-73,162.5251629-177,162.5251629s-176-62.843069-176-162.5251329,72-162.5251479,176-162.5251479,177,62.843054,177,162.5251479v-.0000301ZM502,71.5110762c-43,0-87-15.1690145-158-15.1690145-201,.0000038-344,110.5171085-344,267.263585s143,267.2635512,344,267.2635512c202,0,344-110.5171048,344-267.2635812,0-75.122744-35-139.4104621-93-187.0844978,81-13.7243466,115-57.0643825,98-136.5211188h-132c14,41.8953718,3,71.5110612-59,71.5110612v.000015Z"/>
      </g>
    </g>
  </g>
</svg>