<?xml version="1.0" encoding="UTF-8"?>
<svg xmlns="http://www.w3.org/2000/svg" width="604" height="718" version="1.1" viewBox="0 0 604 718" preserveAspectRatio="none">
  <!-- Generator: Adobe Illustrator 28.7.1, SVG Export Plug-In . SVG Version: 1.2.0 Build 142)  -->
  <g>
    <g id="Layer_1">
      <g id="Layer_1-2" data-name="Layer_1">
        <path d="M302,718c183,0,302-76.9552715,302-224.8886795V173.3361129h-167v316.0395427c0,83.6795038-53,119.5421356-135,119.5421356s-136-35.8626318-136-119.5421356V173.3361129H0v319.7752372c0,147.9333784,119,224.8886499,302,224.8886499ZM437,75.4609803C437,30.6326739,386,0,305,0c-66,0-118,21.6670141-145,62.7596279l87,25.4027049c8-13.4484943,22-23.9084286,48-23.9084286,22,0,36,6.7242472,36,20.1727341,0,12.7013525-16,20.1727341-47,20.1727341v47.0697153c113,0,153-35.1155047,153-76.2081074Z"/>
      </g>
    </g>
  </g>
</svg>