<?xml version="1.0" encoding="UTF-8"?>
<svg xmlns="http://www.w3.org/2000/svg" width="703.2829765" height="718" version="1.1" viewBox="0 0 703.2829765 718" preserveAspectRatio="none">
  <!-- Generator: Adobe Illustrator 28.7.1, SVG Export Plug-In . SVG Version: 1.2.0 Build 142)  -->
  <g>
    <g id="Layer_1">
      <g id="Layer_1-2" data-name="Layer_1">
        <path d="M302,718c183,0,302-78.5908851,302-229.6684331v-254.0850263c78-14.4973503,112-59.5154125,95-140.3953218h-132c10,43.4920362,0,67.9085997-56,67.9085997h-74v322.756639c0,85.4580464-53,122.0829065-135,122.0829065s-136-36.6248601-136-122.0829065V161.7598334H0v326.5717335c0,151.0776072,119,229.6684331,302,229.6684331ZM229,0c-77,0-125,54.1742809-128,132.0021197h106c5-25.9426117,18-38.9139213,42-38.9139213,36,0,65,38.9139213,125,38.9139213,77,0,125-52.6482512,128-132.0021197h-105c-6,26.7056321-18,39.676938-42,39.676938-36,0-66-39.676938-126-39.676938Z"/>
      </g>
    </g>
  </g>
</svg>